<svg xmlns="http://www.w3.org/2000/svg" xml:space="preserve" width="100" height="115.47"><path fill="gray" fill-opacity=".25" stroke="gray" stroke-opacity=".5" d="M84.5 56.817c0 9.527-3.861 19.044-10.105 25.287S50 103.004 50 103.004s-18.152-14.657-24.395-20.9S15.5 66.344 15.5 56.817c0-19.054 15.446-34.5 34.5-34.5s34.5 15.446 34.5 34.5z"/><path fill="#fff" fill-opacity=".5" stroke="gray" stroke-opacity=".5" d="M79.5 57.735c0 8.146-3.302 16.284-8.64 21.622S50 97.228 50 97.228 34.479 84.695 29.14 79.357 20.5 65.881 20.5 57.735c0-16.292 13.207-29.5 29.5-29.5s29.5 13.208 29.5 29.5z"/></svg>