<svg xmlns="http://www.w3.org/2000/svg" xml:space="preserve" width="100" height="115.47"><g fill="#fff"><path d="m55.783 48.96-8.061 4.654-8.061-4.654v-9.308l8.061-4.654 8.061 4.654z"/><path d="m44.354 55.915-3.69 2.13-3.688-2.13v-4.26l3.689-2.13 3.689 2.13zm-4.693-5.878-1.807 1.077-1.807-1.077v-2.154l1.807-1.077 1.807 1.077zm20.857 3.4-2.062 1.19-2.063-1.19v-2.381l2.063-1.191 2.062 1.19zm1.477-10.223-2.062 1.19-2.063-1.19v-2.381l2.063-1.191 2.062 1.19zm-.841 4.152-1.89 1.091-1.89-1.091v-2.182l1.89-1.091 1.89 1.09zM52.748 79.76l-1.418.819-1.418-.819v-1.637l1.418-.819 1.418.819zm-1.958-2.179-1.278.742-1.278-.742v-1.484l1.278-.742 1.278.742zm-1.597-2.054-1.159.67-1.159-.67v-1.338l1.16-.67 1.158.67zm-5.732-10.022-1.156.668-1.156-.668V64.17l1.156-.668 1.156.668zm-3.8-19.711-1.658.957-1.657-.957V43.88l1.657-.957 1.658.957zM54.82 37.66l-1.167.674-1.167-.674v-1.348l1.167-.674 1.167.674zm-2.334-1.348-1.234.713-1.234-.713v-1.425l1.234-.712 1.234.712zm10.443 3.687-1.11.641-1.112-.64v-1.283l1.11-.64 1.111.64zm-2.492 9.924-.924.535-.924-.535v-1.07l.924-.534.924.535zm-5.71 1.441-.757.437-.758-.437v-.875l.758-.437.757.437zm5.767 3.638-.671.388-.672-.388v-.775l.672-.388.671.388zm-1.919-10.557-.603.372-.604-.372V43.7l.604-.372.603.372z"/><path d="m53.212 51.531-.461.266-.461-.266v-.532l.461-.267.461.267zm3.493-3.86-.461.266-.461-.266v-.532l.461-.267.461.267zM42.021 60.948l-.516.298-.516-.298v-.596l.516-.298.516.298zM37.28 47.154l-.658.38-.658-.38v-.76l.658-.38.658.38zm3.784 14.331-.414.239-.413-.239v-.478l.413-.239.414.24zm15.9-12.525-.59.34-.59-.34v-.682l.59-.34.59.34zm.435 8.164-.577.333-.578-.333v-.667l.578-.333.577.333zm6.485-18.608-.577.333-.578-.333v-.667l.578-.333.577.333zm-8.486.151-.577.333-.578-.333V38l.578-.333.577.333zM38.912 57.645l-.506.285-.505-.285v-.57l.505-.284.506.284zm-1.583-6.233-.506.285-.505-.285v-.57l.505-.284.506.284zm23.581-2.826-.468.27-.467-.27v-.54l.467-.27.468.27zm.594-3.841-.54.312-.54-.312v-.623l.54-.312.54.312zm-2.903 4.081-.618.357-.617-.357v-.713l.617-.357.618.357zm-8.583-13.282-.618.357-.617-.357v-.713l.617-.357.618.357zm-10.139 7.253-1.047.604-1.047-.604v-1.209l1.047-.604 1.047.604zm6.827 11.618-1.176.679-1.176-.679v-1.358l1.176-.679 1.176.68z"/><path d="m58.456 55.848-1.056.61-1.057-.61v-1.22l1.057-.61 1.056.61zM47.789 73.656l-1.155.664-1.155-.664v-1.328l1.155-.664 1.155.664zm-1.204-2.009-1.102.634-1.103-.634V70.38l1.103-.634 1.102.634zm-1.049-1.964-1.153.663-1.153-.663v-1.326l1.153-.663 1.153.663zm-1.098-2.053-1.155.664-1.155-.664v-1.328l1.155-.664 1.155.664zm-1.778-4.392-1.155.664-1.155-.664V61.91l1.155-.664 1.155.664zm-2.318-4.216-.953.55-.954-.55v-1.101l.954-.55.953.55zm16.497-8.232-1.056.61-1.057-.61v-1.22l1.057-.61 1.056.61zm-3.255-15.112-.515.297-.514-.297v-.594l.514-.298.515.298zm7.124 3.895-.375.216-.374-.216v-.431l.374-.216.375.216zm-4.176 7.133-.375.216-.374-.216v-.431l.374-.216.375.216z"/></g></svg>