<svg xmlns="http://www.w3.org/2000/svg" xml:space="preserve" width="100" height="115.47"><g fill="#fff"><path d="m54.176 57.376-5.93 3.424-5.93-3.424v-6.847l5.93-3.424 5.93 3.424zm-7.503 5.445-2.603 1.462-2.602-1.462v-2.924l2.602-1.462 2.603 1.462zm14.699-14.753-5.713 3.247-5.714-3.247v-6.493l5.714-3.247 5.713 3.247zm-3.356 6.215-1.902 1.064-1.903-1.064v-2.128l1.902-1.064 1.903 1.064z"/><path d="m47.127 47.752-1.266.717-1.267-.717v-1.435l1.267-.717 1.266.717zm2.795-1.034-1.178.668-1.179-.668v-1.335l1.179-.668 1.178.668zm6.536 10.112-1.133.642-1.134-.642v-1.284l1.134-.642 1.133.642zm-11.546-7.809-.957.542L43 49.02v-1.084l.956-.542.957.542zm13.967 2.562-.92.521-.92-.521V50.54l.92-.52.92.52zm-8.937-7.097-.8.453-.8-.453v-.907l.8-.453.8.453zm-6.573 14.335-.75.418-.749-.418v-.836l.75-.418.749.418zm1.168 6.433-.633.354-.633-.354v-.707l.633-.354.633.354zm3.514-3.798-.686.383-.686-.383v-.766l.686-.383.686.383zm-6.016 5.403-1.222.692-1.221-.692v-1.384l1.221-.692 1.222.692zm-1.869 3.191-1.151.652-1.152-.652v-1.305l1.152-.652 1.151.652zm-2.634 4.969-1.275.723-1.276-.723v-1.445l1.276-.723 1.275.723zm.571-2.065-.827.462-.828-.462v-.924l.828-.462.827.462zm4.231-4.98-.548.318-.548-.318v-.635l.548-.318.548.318zm-1.404-3.268-.494.286-.495-.286v-.573l.495-.286.494.286zm.038 4.939-.396.23-.396-.23v-.459l.396-.23.396.23zm-2.04 2.614-.408.236-.407-.236v-.472l.407-.236.408.236zm-1.147 3.534-.396.23-.396-.23v-.459l.396-.23.396.23zm-1.336-3.055-.301.175-.302-.175v-.35l.302-.174.301.175zm-.887.498-.301.175-.302-.175v-.35l.302-.174.301.175z"/><path d="m36.989 75.863-.233.135-.232-.135v-.27l.232-.134.233.134zm8.177-11.37-.359.208-.359-.208v-.416l.36-.208.358.208zm-1.723-14.615-.54.302-.541-.302v-.604l.54-.302.541.302zm.079 14.522-.359.208-.359-.208v-.416l.36-.208.358.208zm14.071-8.612-.566.316-.566-.316v-.632l.566-.316.566.316zm2.049-5.459-.566.316-.566-.316v-.632l.566-.316.566.316zm.608-.729-.387.225-.388-.225v-.45l.388-.224.387.225zm.344-.532-.242.14-.241-.14v-.28l.241-.14.242.14zm-5.782 8.485-.317.184-.316-.184v-.367l.316-.184.317.184zm7.337-10.94-.387.225-.388-.225v-.45l.388-.224.387.225z"/><path d="m62.149 45.715-.387.225-.388-.225v-.45l.388-.224.387.225z"/><path d="m62.147 44.821-.387.225-.388-.225v-.45l.388-.224.387.225zm-.519-3.763-.566.316-.566-.316v-.632l.566-.316.566.316z"/><path d="m60.496 40.426-.566.316-.566-.316v-.632l.566-.316.566.316zm-1.132-.632-.566.316-.566-.316v-.632l.566-.316.566.316zm-1.123-.641-.566.316-.566-.316v-.632l.566-.316.566.316zm-1.133-.582-.506.293-.506-.293v-.586l.506-.294.506.293zm-3.477.907-.387.225-.388-.225v-.45l.388-.224.387.225zm-1.918 1.095-.604.337-.603-.337v-.674l.603-.337.604.337zm1.089-.621-.46.266-.46-.266v-.533l.46-.266.46.266zm9.275 3.991-.353.204-.353-.204v-.409l.353-.204.353.204zm-6.915 7.68-.471.273-.471-.273v-.546l.47-.273.472.273zm6.805-4.32-.296.172-.297-.172v-.344l.297-.171.296.171zm-.033-4.136-.281.163-.282-.163v-.326l.282-.163.281.163zm-.036-.642-.263.153-.264-.153v-.305l.264-.153.263.153zm-.073-.569-.225.13-.226-.13v-.261l.226-.13.225.13zm-7.135-3.079-.27.156-.269-.156v-.312l.27-.156.269.156zm-.528.3-.225.13-.226-.13v-.261l.226-.13.225.13zm.981-.559-.225.13-.226-.13v-.261l.226-.13.225.13zm-5.198 4.46-.438.254-.438-.254v-.508l.438-.253.438.253zm-.002-.789-.24.139-.24-.139v-.278l.24-.139.24.139zm.803-1.172-.347.201-.347-.201v-.402l.347-.201.347.2zm1.38-.783-.205.119-.205-.119v-.238l.205-.118.205.118zm-2.185 7.289-.397.23-.397-.23v-.46l.397-.23.397.23zm-2.075-.302-.367.213-.367-.213v-.425l.367-.213.367.213zm-.303-1.08-.28.162-.28-.162v-.324l.28-.163.28.163zm-2.017 2.421-.316.183-.317-.183v-.367l.317-.183.316.183zm-.955-1.248-.299.173-.298-.173v-.346l.298-.173.299.173zM42.32 59.412l-.288.167-.287-.167v-.333l.287-.167.288.167zm1.537-.861-.244.141-.243-.141v-.282l.243-.142.244.142zm11.082-3.433-.378.211-.378-.211v-.422l.378-.211.378.21zm-16.27 13.166-.317.184-.316-.184v-.367l.316-.184.317.184zm-1.542 3.362-.317.184-.316-.184v-.367l.316-.184.317.184zM35 73.563l-.259.15-.258-.15v-.3l.258-.15.259.15zm.943-.54-.191.11-.19-.11v-.221l.19-.111.191.11zm-.962 1.135-.261.152-.262-.152v-.303l.262-.152.261.152zm.001.452-.194.113-.195-.113v-.225l.195-.113.194.113zm3.078.575-.264.153-.264-.153v-.306l.264-.153.264.153zm0-.612-.264.153-.264-.153v-.306l.264-.153.264.153zm-.085-1.015-.233.135-.232-.135v-.27l.232-.134.233.134zm2.152-2.909-.25.145-.251-.145v-.29l.25-.145.251.145zm.416-.572-.187.109-.188-.109v-.217l.188-.109.187.109zm-2.68-.027-.31.18-.31-.18v-.36l.31-.18.31.18zm-.001-.579-.187.109-.188-.109v-.217l.188-.109.187.109zm4.769-2.305-.296.172-.297-.172v-.343l.297-.172.296.172zm3.074-3.123-.296.172-.297-.172V63.7l.297-.172.296.172zm1.624-1.839-.326.19-.327-.19v-.378l.327-.19.326.19zm9.887-5.572-.378.211-.378-.211v-.422l.378-.211.378.21zM42.88 63.937l-.274.159-.274-.159v-.317l.274-.16.274.16zm-1.415-.964-.232.134-.231-.134v-.268l.231-.135.232.134zm.927.61-.206.12-.206-.12v-.239l.206-.12.206.12zm3.646.07-.206.12-.206-.12v-.239l.206-.12.206.12zm-4.572-1.192-.206.12-.206-.12v-.239l.206-.12.206.12zm17.188-10.022-.317.184-.316-.184v-.367l.316-.184.317.184z"/><path d="m57.558 38.267-.225.13-.226-.13v-.261l.226-.13.225.13zm1.145.628-.23.134-.232-.134v-.268l.231-.133.231.133zm1.124.636-.23.134-.232-.134v-.268l.231-.133.231.133zm1.132.634-.23.134-.232-.134v-.268l.231-.133.231.133zm-.464.696-.19.11-.19-.11v-.22l.19-.11.19.11zm-1.13-.641-.187.108-.186-.108v-.216l.186-.108.187.108zm-1.133-.64-.185.107-.185-.107v-.214l.185-.107.185.107zm-1.124-.62-.167.096-.166-.096v-.193l.166-.096.167.096zm-1.015-.649-.23.133-.229-.133v-.266l.23-.133.229.133zm-.602.109-.172.1-.173-.1v-.2l.173-.1.172.1zm6.344 3.025-.22.127-.218-.127v-.254l.219-.127.219.127zm-.44.01-.117.068-.116-.068v-.135l.116-.068.117.068zm-12.934 3.416-.272.158-.272-.158v-.315l.272-.158.272.158zm1.483.222-.264.153-.264-.153v-.306l.264-.153.264.153zm7.093 6.16-.313.181-.312-.181v-.362l.312-.182.313.182zm-2.807 6.57-.206.12-.206-.12v-.239l.206-.12.206.12zm-12.778 7.022-.259.15-.259-.15v-.3l.259-.15.259.15zm-1.251.281-.232.134-.231-.134v-.268l.231-.135.232.134zm-.611 1.409-.232.134-.231-.134v-.268l.231-.135.232.134zm2.899.026-.226.131-.227-.131v-.262l.227-.132.226.132zm4.647-6.131-.23.133-.23-.133v-.267l.23-.133.23.133zm10.797-5.422-.296.171-.296-.171v-.343l.296-.171.296.171zm-4.115 3.053-.206.12-.206-.12v-.239l.206-.12.206.12zm-.413.195-.188.109-.187-.109v-.218l.187-.108.188.108zm-.375.144-.156.09-.157-.09v-.181l.157-.09.156.09zm5.379-5.506-.196.114-.197-.114v-.228l.197-.113.196.113zm2.538-4.133-.196.114-.197-.114v-.228l.197-.113.196.113zm.861-.951-.217.126-.217-.126v-.251l.217-.126.217.126z"/></g></svg>