<svg xmlns="http://www.w3.org/2000/svg" xml:space="preserve" width="100" height="115.47"><path fill="#3fbbc2" d="M80 75.056 50 92.377 20 75.056V40.415l30-17.321 30 17.321z"/><path fill="#6c4818" d="m50 23.094-2 1.154 30 17.32V76.21l2-1.154V40.414z"/><path fill="#71833e" d="m28 45.034-4 2.31v4.618l4 2.31 4-2.31v-4.619zm13 6.351-6 3.464v6.928l6 3.464 6-3.464V54.85zm25 .576-4 2.31v4.618l4 2.31 4-2.31V54.27zm3 27.137-4 2.31v4.618l4 2.31 4-2.31v-4.619zm15-28.291-4 2.31v4.618l4 2.31 4-2.31v-4.619zm-66 5.774-4 2.31v4.618l4 2.31 4-2.31V58.89zm4-24.249-4 2.31v4.618l4 2.31 4-2.31v-4.619zm22-10.393-4 2.31v4.618l4 2.31 4-2.31v-4.619z"/></svg>