<svg xmlns="http://www.w3.org/2000/svg" xml:space="preserve" width="100" height="115.47"><g fill="#73a032" stroke-linejoin="bevel"><path d="m85.79 49.443-3 1.732-3-1.732v-3.464l3-1.732 3 1.732zm8.204 18.308-2 1.155-2-1.155v-2.31l2-1.154 2 1.155zm4.528-15.557-2 1.155-2-1.155v-2.31l2-1.154 2 1.155zm-1 4.042-2 1.155-2-1.155v-2.31l2-1.154 2 1.155zm-31.88-13.193-2 1.155-2-1.155v-2.31l2-1.154 2 1.155zm-3.5 1.444-1 .577-1-.577v-1.155l1-.577 1 .577zm1 0-.5.289-.5-.289v-.577l.5-.289.5.289z"/><path d="m64.142 45.064-.5.289-.5-.289v-.577l.5-.289.5.289z"/><path d="m63.142 46.219-1 .577-1-.577v-1.155l1-.577 1 .577zm16.645.565-2 1.155-2-1.155v-2.31l2-1.154 2 1.155zm16.739 1.94-1 .577-1-.577v-1.155l1-.577 1 .577zm-5.417 1.961-1 .577-1-.577V49.53l1-.577 1 .577zm7.89 7.008-1 .577-1-.577v-1.155l1-.577 1 .577z"/><path d="m97.022 58.834-1 .577-1-.577v-1.155l1-.577 1 .577zm-17.236-9.738-1 .577-1-.577v-1.155l1-.577 1 .577zm-2.499-5.488-1 .577-1-.577v-1.155l1-.577 1 .577zm7.503 8.722-1 .577-1-.577v-1.155l1-.577 1 .577zm13.732 2.173-.5.289-.5-.289v-.577l.5-.289.5.289z"/><path d="m98.999 60.002-1 .577-1-.577v-1.155l1-.577 1 .577zM87.99 66.267l-1 .577-1-.577v-1.155l1-.577 1 .577zm2.004.907-1 .577-1-.577v-1.155l1-.577 1 .577zm6-2.021-1 .577-1-.577v-1.155l1-.577 1 .577zM49.338 54.715l-3 1.732-3-1.732v-3.464l3-1.732 3 1.732zm16.423-16.227-2 1.155-2-1.155v-2.31l2-1.154 2 1.155zM30.103 48.813l-2 1.155-2-1.155v-2.31l2-1.154 2 1.155zm9.376-7.213-2 1.155-2-1.155v-2.31l2-1.154 2 1.155zm6 4.041-2 1.155-2-1.155v-2.31l2-1.154 2 1.155zm-4-.577-1 .577-1-.577v-1.155l1-.577 1 .577zm-24.376 2.017-3 1.732-3-1.732v-3.464l3-1.732 3 1.732zm52.691 24.626-2 1.155-2-1.155v-2.31l2-1.154 2 1.155zm12.1-6.588-2 1.155-2-1.155v-2.31l2-1.154 2 1.155zm.002-3.464-1 .577-1-.577V60.5l1-.577 1 .577zm-.5-2.021-1 .577-1-.577v-1.155l1-.577 1 .577zm-3.504 4.538-1 .577-1-.577v-1.155l1-.577 1 .577zm4.304 3.085-1 .577-1-.577v-1.155l1-.577 1 .577zm.929 6.457-1 .577-1-.577v-1.155l1-.577 1 .577zm-7.235-8.391-1 .577-1-.577v-1.155l1-.577 1 .577zm0-2.309-1 .577-1-.577v-1.155l1-.577 1 .577zm-11.929-4.409-1 .577-1-.577V57.45l1-.577 1 .577zm0-2.309-1 .577-1-.577v-1.155l1-.577 1 .577zm1-1.732-1 .577-1-.577v-1.155l1-.577 1 .577zm5.546.838-1 .577-1-.577v-1.155l1-.577 1 .577zm-1.5-1.444-1 .577-1-.577v-1.155l1-.577 1 .577z"/><path d="m67.507 52.515-1 .577-1-.577V51.36l1-.577 1 .577zm.5-2.021-1 .577-1-.577v-1.155l1-.577 1 .577zm4.372 17.412-1 .577-1-.577v-1.155l1-.577 1 .577zm3.423 2.646-1 .577-1-.577v-1.155l1-.577 1 .577zM86.2 68.701l-2 1.155-2-1.155v-2.31l2-1.154 2 1.155zm.925 5.013-2 1.155-2-1.155v-2.31l2-1.154 2 1.155zm-69.952-10.64-2 1.155-2-1.155v-2.31l2-1.154 2 1.155zm13.561-5.336-1 .577-1-.577v-1.155l1-.577 1 .577zm7.5-1.443-1 .577-1-.577V55.14l1-.577 1 .577zm3 4.619-1 .577-1-.577v-1.155l1-.577 1 .577zm-2.5-1.444-1 .577-1-.577v-1.155l1-.577 1 .577zm-.5-5.485-1 .577-1-.577V52.83l1-.577 1 .577z"/><path d="m39.234 52.253-1 .577-1-.577v-1.155l1-.577 1 .577zM16.673 65.672l-1 .577-1-.577v-1.155l1-.577 1 .577zm2 1.155-1 .577-1-.577v-1.155l1-.577 1 .577zm6.296-.477-1 .577-1-.577v-1.155l1-.577 1 .577z"/><path d="m24.469 68.37-1 .577-1-.577v-1.155l1-.577 1 .577zm-1-8.082-1 .577-1-.577v-1.155l1-.577 1 .577zm-1.5-1.444-1 .577-1-.577v-1.155l1-.577 1 .577zm-2.5 1.444-1 .577-1-.577v-1.155l1-.577 1 .577zm4.634-12.63-1 .577-1-.577v-1.155l1-.577 1 .577zm2 1.155-1 .577-1-.577v-1.155l1-.577 1 .577z"/><path d="m27.103 50.545-1 .577-1-.577V49.39l1-.577 1 .577zm3.5.289-1 .577-1-.577v-1.155l1-.577 1 .577z"/><path d="m29.103 52.277-1 .577-1-.577v-1.155l1-.577 1 .577zm-10-6.351-1 .577-1-.577v-1.155l1-.577 1 .577zm0-2.309-1 .577-1-.577v-1.155l1-.577 1 .577zm-6.25-1.01-1 .577-1-.577v-1.155l1-.577 1 .577zm6.25 5.629-1 .577-1-.577v-1.155l1-.577 1 .577zm-.43 16.281-1 .577-1-.577v-1.155l1-.577 1 .577zm55.125 7.19-2 1.155-2-1.155v-2.31l2-1.154 2 1.155zm-25.736-.368-2 1.155-2-1.155v-2.31l2-1.154 2 1.155zm-14.154 6.777-1 .577-1-.577v-1.155l1-.577 1 .577zm-1.752 2.991-1 .577-1-.577v-1.155l1-.577 1 .577zm.5.866-.5.289-.5-.289v-.577l.5-.289.5.289zm-2.5-1.443-.5.289-.5-.289v-.577l.5-.289.5.289z"/><path d="m29.656 79.664-.5.289-.5-.289v-.577l.5-.289.5.289zm2.5 3.175-.5.289-.5-.289v-.577l.5-.289.5.289zm1-2.887-.5.289-.5-.289v-.577l.5-.289.5.289z"/><path d="m32.656 79.086-.5.289-.5-.289v-.577l.5-.289.5.289zm3.252-1.547-1 .577-1-.577v-1.155l1-.577 1 .577z"/><path d="m37.408 78.982-1 .577-1-.577v-1.155l1-.577 1 .577zm.5.866-.5.289-.5-.289v-.577l.5-.289.5.289zm-3.5-3.753-1 .577-1-.577V74.94l1-.577 1 .577z"/><path d="m34.658 74.508-.5.289-.5-.289v-.577l.5-.289.5.289zm-.75-.722-.5.289-.5-.289v-.577l.5-.289.5.289zm4.5 5.196-.5.289-.5-.289v-.577l.5-.289.5.289z"/><path d="m38.658 77.972-.5.289-.5-.289v-.577l.5-.289.5.289zm-.25-1.011-.5.289-.5-.289v-.577l.5-.289.5.289zm0-1.155-.5.289-.5-.289v-.577l.5-.289.5.289zm-4.25-3.031-.5.289-.5-.289v-.577l.5-.289.5.289zm-4.313-35.417-2 1.155-2-1.155v-2.31l2-1.154 2 1.155zm36.223 41.673-2 1.155-2-1.155v-2.31l2-1.154 2 1.155zm5.727-3.856-2 1.155-2-1.155v-2.31l2-1.154 2 1.155zM59.961 62.069l-2 1.155-2-1.155v-2.31l2-1.154 2 1.155zm4 0-2 1.155-2-1.155v-2.31l2-1.154 2 1.155zM24.969 64.04l-2 1.155-2-1.155v-2.31l2-1.154 2 1.155zm14.265-.817-2 1.155-2-1.155v-2.31l2-1.154 2 1.155zm7.262-29.506-2 1.155-2-1.155v-2.31l2-1.154 2 1.155zm15.265 4.146-2 1.155-2-1.155v-2.31l2-1.154 2 1.155zm-4.073 14.414-2 1.155-2-1.155v-2.31l2-1.154 2 1.155zm-3.361-2.68-1 .577-1-.577v-1.155l1-.577 1 .577zm-5.989-.078-1 .577-1-.577v-1.155l1-.577 1 .577zm-4 1.155-1 .577-1-.577v-1.155l1-.577 1 .577zm-3.859-7.342-1 .577-1-.577v-1.155l1-.577 1 .577zm1-1.732-1 .577-1-.577v-1.155l1-.577 1 .577zm-7 .577-1 .577-1-.577v-1.155l1-.577 1 .577zm8.859 11.383-1 .577-1-.577v-1.155l1-.577 1 .577zm2 3.464-1 .577-1-.577v-1.155l1-.577 1 .577zm2.5.866-1 .577-1-.577v-1.155l1-.577 1 .577zm-2 0-.5.289-.5-.289v-.577l.5-.289.5.289zm3.224 10.562-1 .577-1-.577v-1.155l1-.577 1 .577zm.5 4.33-1 .577-1-.577v-1.155l1-.577 1 .577zm-6.5-2.02-1 .577-1-.577v-1.155l1-.577 1 .577z"/><path d="m41.562 72.205-1 .577-1-.577V71.05l1-.577 1 .577zm2.5-.866-.5.289-.5-.289v-.577l.5-.289.5.289zm3.5 1.443-.5.289-.5-.289v-.577l.5-.289.5.289zm-3.5-2.598-.5.289-.5-.289v-.577l.5-.289.5.289z"/><path d="m44.062 69.03-1 .577-1-.577v-1.155l1-.577 1 .577zm14.624-19.642-1 .577-1-.577v-1.155l1-.577 1 .577zm-.999-1.734-1 .577-1-.577v-1.155l1-.577 1 .577z"/><path d="m58.686 47.078-.5.289-.5-.289v-.577l.5-.289.5.289z"/><path d="m59.186 47.944-.5.289-.5-.289v-.577l.5-.289.5.289zm-2.5.866-.5.289-.5-.289v-.577l.5-.289.5.289zm-1.359.21-.5.289-.5-.289v-.577l.5-.289.5.289zm-2.855-.665-.5.289-.5-.289v-.577l.5-.289.5.289zm-1.003-.253-.5.289-.5-.289v-.577l.5-.289.5.289zm-2.631 2.283-.5.289-.5-.289v-.577l.5-.289.5.289zm-3.5-.289-.5.289-.5-.289v-.577l.5-.289.5.289zm-.859-7.919-.5.289-.5-.289V41.6l.5-.289.5.289zm-5 2.309-.5.289-.5-.289v-.577l.5-.289.5.289zm0 1.155-.5.289-.5-.289v-.577l.5-.289.5.289zm-6.25-5.052-.5.289-.5-.289v-.577l.5-.289.5.289zm4.75-3.319-.5.289-.5-.289v-.577l.5-.289.5.289zm.25-1.011-.5.289-.5-.289v-.577l.5-.289.5.289z"/><path d="m38.479 38.136-.5.289-.5-.289v-.577l.5-.289.5.289zm-3 3.464-.5.289-.5-.289v-.577l.5-.289.5.289zm10 1.154-.5.289-.5-.289v-.577l.5-.289.5.289zm8.205 8.205-.5.289-.5-.289v-.577l.5-.289.5.289zm3.754 2.617-.5.289-.5-.289v-.577l.5-.289.5.289zm-5.111-4.145-.5.289-.5-.289v-.577l.5-.289.5.289zm7.436-15.037-3 1.732-3-1.732V30.93l3-1.732 3 1.732zM36.734 60.047l-3 1.732-3-1.732v-3.464l3-1.732 3 1.732zM23.103 45.926l-2 1.155-2-1.155v-2.31l2-1.154 2 1.155zm-12.041 8.583-2 1.155-2-1.155v-2.31l2-1.154 2 1.155zm7.041-3.387-2 1.155-2-1.155v-2.31l2-1.154 2 1.155z"/><path d="m38.479 46.796-3 1.732-3-1.732v-3.464l3-1.732 3 1.732z"/></g><g fill="#4d7122" stroke-linejoin="bevel"><path d="m68.043 86.243-3 1.732-3-1.732v-3.464l3-1.732 3 1.732zM91.11 58.252l-3 1.732-3-1.732v-3.464l3-1.732 3 1.732zm-9.564 26.5-3 1.732-3-1.732v-3.464l3-1.732 3 1.732zm-1.327-8.475-3 1.732-3-1.732v-3.464l3-1.732 3 1.732zM58.875 26.166l-3 1.732-3-1.732v-3.464l3-1.732 3 1.732zm8.613 2.122-3 1.732-3-1.732v-3.464l3-1.732 3 1.732zm-49.156 4.91-2 1.155-2-1.155v-2.31l2-1.154 2 1.155zm4-1.584-2 1.155-2-1.155v-2.31l2-1.154 2 1.155z"/><path d="m53.875 22.125-2 1.155-2-1.155v-2.31l2-1.154 2 1.155zm-22.5 6.062-2 1.155-2-1.155v-2.31l2-1.154 2 1.155zm10 .578-2 1.155-2-1.155v-2.31l2-1.154 2 1.155zM23.478 52.743l-2 1.155-2-1.155v-2.31l2-1.154 2 1.155zm-11.352 8.13-2 1.155-2-1.155v-2.31l2-1.154 2 1.155zm86.362-19.518-3 1.732-3-1.732v-3.464l3-1.732 3 1.732zm-6.769 34.633-1 .577-1-.577v-1.155l1-.577 1 .577zm-16.176 9.363-2 1.155-2-1.155v-2.31l2-1.154 2 1.155zm-13.501.889-2 1.155-2-1.155v-2.31l2-1.154 2 1.155zm-8.561 7.196-2 1.155-2-1.155v-2.31l2-1.154 2 1.155zm-3.678-29.932-2 1.155-2-1.155v-2.31l2-1.154 2 1.155zm4.002-.747-2 1.155-2-1.155v-2.31l2-1.154 2 1.155zm-3.93-36.59-2 1.155-2-1.155v-2.31l2-1.154 2 1.155zm25.632 23.389-2 1.155-2-1.155v-2.31l2-1.154 2 1.155z"/><path d="m94.719 74.256-2 1.155-2-1.155v-2.31l2-1.154 2 1.155zM78.021 59.103l-2 1.155-2-1.155v-2.31l2-1.154 2 1.155zm11.273 3.875-2 1.155-2-1.155v-2.31l2-1.154 2 1.155zm-2.184-9.345-1 .577-1-.577v-1.155l1-.577 1 .577z"/><path d="m88.11 51.901-1 .577-1-.577v-1.155l1-.577 1 .577zm-2.82 7.611-1 .577-1-.577v-1.155l1-.577 1 .577zm-17.372 5.511-1 .577-1-.577v-1.155l1-.577 1 .577zm1.75 2.454-.5.289-.5-.289V66.9l.5-.289.5.289zm0-1.155-.5.289-.5-.289v-.577l.5-.289.5.289zm-.5-1.443-.5.289-.5-.289v-.577l.5-.289.5.289zm3.5-.289-.5.289-.5-.289v-.577l.5-.289.5.289z"/><path d="m68.668 65.745-.5.289-.5-.289v-.577l.5-.289.5.289zm-11.367-9.923-.5.289-.5-.289v-.577l.5-.289.5.289zm12.117 7.758-1 .577-1-.577v-1.155l1-.577 1 .577zm-10.5 5.485-1 .577-1-.577V67.91l1-.577 1 .577zm1.5 4.907-.5.289-.5-.289v-.577l.5-.289.5.289zm-2.5.289-.5.289-.5-.289v-.577l.5-.289.5.289zm0 1.155-.5.289-.5-.289v-.577l.5-.289.5.289zm3.5-.866-.5.289-.5-.289v-.577l.5-.289.5.289zm0-1.155-.5.289-.5-.289v-.577l.5-.289.5.289zm-4.25-7.939-.5.289-.5-.289v-.577l.5-.289.5.289zm-.25 8.805-1 .577-1-.577v-1.155l1-.577 1 .577z"/><path d="m58.418 67.044-1 .577-1-.577v-1.155l1-.577 1 .577zm2 .578-1 .577-1-.577v-1.155l1-.577 1 .577zm1.5-1.444-1 .577-1-.577v-1.155l1-.577 1 .577zm7-8.66-1 .577-1-.577v-1.155l1-.577 1 .577zm-1.5-1.444-1 .577-1-.577v-1.155l1-.577 1 .577zm3.339.627-.5.289-.5-.289v-.577l.5-.289.5.289z"/><path d="m69.757 56.989-.5.289-.5-.289v-.577l.5-.289.5.289zm21.353 3.573-1 .577-1-.577v-1.155l1-.577 1 .577zm2-2.31-1 .577-1-.577v-1.155l1-.577 1 .577zm0-2.309-1 .577-1-.577v-1.155l1-.577 1 .577zm-.25-2.454-1 .577-1-.577v-1.155l1-.577 1 .577zm-1.564 9.278-1 .577-1-.577v-1.155l1-.577 1 .577zM71.487 36.948l-2 1.155-2-1.155v-2.31l2-1.154 2 1.155zm9.733 34.133-2 1.155-2-1.155v-2.31l2-1.154 2 1.155zm-61.411 8.02-3 1.732-3-1.732v-3.464l3-1.732 3 1.732zm-5.5-8.372-3 1.732-3-1.732v-3.464l3-1.732 3 1.732zm70.178-35.98-4 2.31-4-2.31V30.13l4-2.31 4 2.31zm-8.999-4.729-4 2.31-4-2.31v-4.619l4-2.31 4 2.31zM28.81 72.749l-2 1.155-2-1.155v-2.31l2-1.154 2 1.155zm-5.001 7.507-2 1.155-2-1.155v-2.31l2-1.154 2 1.155zm7.194-16.298-2 1.155-2-1.155v-2.31l2-1.154 2 1.155zm6.297 4.45-2 1.155-2-1.155v-2.31l2-1.154 2 1.155zm-13.491 7.229-2 1.155-2-1.155v-2.31l2-1.154 2 1.155zm-4-2.31-2 1.155-2-1.155v-2.31l2-1.154 2 1.155zm13.489-3.763-3 1.732-3-1.732V66.1l3-1.732 3 1.732zm16.508-28.205-2 1.155-2-1.155v-2.31l2-1.154 2 1.155zm3.664 3.961-2 1.155-2-1.155v-2.31l2-1.154 2 1.155zm-8.382 37.404-3 1.732-3-1.732V79.26l3-1.732 3 1.732zm48.631-38.343-2 1.155-2-1.155v-2.31l2-1.154 2 1.155zm5.215 1.338-2 1.155-2-1.155v-2.31l2-1.154 2 1.155zM57.918 78.302l-2 1.155-2-1.155v-2.31l2-1.154 2 1.155zm2.5-5.484-2 1.155-2-1.155v-2.31l2-1.154 2 1.155zM9.57 43.988l-2 1.155-2-1.155v-2.31l2-1.154 2 1.155zm29.515 41.045-2 1.155-2-1.155v-2.31l2-1.154 2 1.155zm49.403-50.279-2 1.155-2-1.155v-2.31l2-1.154 2 1.155z"/><path d="m82.987 40.234-2 1.155-2-1.155v-2.31l2-1.154 2 1.155zm-3.493-11.841-2 1.155-2-1.155v-2.31l2-1.154 2 1.155z"/></g><path fill="#73a032" d="m57.758 39.013-2 1.155-2-1.155v-2.31l2-1.154 2 1.155z"/><g fill="#4d7122" stroke-linejoin="bevel"><path d="m65.918 66.756-2 1.155-2-1.155v-2.31l2-1.154 2 1.155zm3-5.197-2 1.155-2-1.155v-2.31l2-1.154 2 1.155zm13.302 8.656-.5.289-.5-.289v-.577l.5-.289.5.289zm1 .577-.5.289-.5-.289v-.577l.5-.289.5.289zm-2.5 1.732-.5.289-.5-.289v-.577l.5-.289.5.289zm1.5-1.154-.5.289-.5-.289v-.577l.5-.289.5.289zm14.499.577-1 .577-1-.577v-1.155l1-.577 1 .577zm-2 3.464-.5.289-.5-.289v-.577l.5-.289.5.289zm-1.5 1.443-.5.289-.5-.289v-.577l.5-.289.5.289z"/><path d="m92.719 75.988-.5.289-.5-.289v-.577l.5-.289.5.289zm-2 1.155-.5.289-.5-.289v-.577l.5-.289.5.289zm-1 0-.5.289-.5-.289v-.577l.5-.289.5.289z"/><path d="m92.219 76.854-.5.289-.5-.289v-.577l.5-.289.5.289zm1.5-.866-.5.289-.5-.289v-.577l.5-.289.5.289zm2-2.886-.5.289-.5-.289v-.577l.5-.289.5.289zm-1-1.732-.5.289-.5-.289v-.577l.5-.289.5.289zm-4 2.886-1 .577-1-.577v-1.155l1-.577 1 .577z"/><path d="m89.719 75.988-1 .577-1-.577v-1.155l1-.577 1 .577zm-11.173 3.568-1 .577-1-.577v-1.155l1-.577 1 .577zm.174-11.65-1 .577-1-.577v-1.155l1-.577 1 .577zm2.826 12.228-1 .577-1-.577v-1.155l1-.577 1 .577zm-7.327-6.166-1 .577-1-.577v-1.155l1-.577 1 .577zm6.327 4.433-1 .577-1-.577v-1.155l1-.577 1 .577zm5.673-.392-1 .577-1-.577v-1.155l1-.577 1 .577z"/><path d="m88.219 77.432-1 .577-1-.577v-1.155l1-.577 1 .577zm-5 1.154-1 .577-1-.577v-1.155l1-.577 1 .577z"/><path d="m82.219 76.854-1 .577-1-.577v-1.155l1-.577 1 .577zm2 0-1 .577-1-.577v-1.155l1-.577 1 .577zm-14.174 9.389-1 .577-1-.577v-1.155l1-.577 1 .577zm2.002.555-1 .577-1-.577v-1.155l1-.577 1 .577zm4.999-.025-1 .577-1-.577v-1.155l1-.577 1 .577zM46.803 65.236l-1 .577-1-.577v-1.155l1-.577 1 .577zm-3.002-2.887-1 .577-1-.577v-1.155l1-.577 1 .577zm-.5-2.021-1 .577-1-.577v-1.155l1-.577 1 .577zm0-2.309-1 .577-1-.577v-1.155l1-.577 1 .577zm-2.539-2.261-1 .577-1-.577v-1.155l1-.577 1 .577zm1.5-4.619-1 .577-1-.577v-1.155l1-.577 1 .577zm-7 .866-1 .577-1-.577V50.85l1-.577 1 .577zm2-1.154-1 .577-1-.577v-1.155l1-.577 1 .577zm4-1.444-1 .577-1-.577v-1.155l1-.577 1 .577zm-8 2.021-1 .577-1-.577v-1.155l1-.577 1 .577z"/><path d="m42.551 56.143-.5.289-.5-.289v-.577l.5-.289.5.289zm-.75 2.742-.5.289-.5-.289v-.577l.5-.289.5.289zm4 3.464-1 .577-1-.577v-1.155l1-.577 1 .577zm1.004-1.734-1 .577-1-.577V59.46l1-.577 1 .577zm7.246-4.649-2 1.155-2-1.155v-2.31l2-1.154 2 1.155zm-14.75 11.02-1 .577-1-.577v-1.155l1-.577 1 .577zm2-.866-1 .577-1-.577v-1.155l1-.577 1 .577zm-1.25 1.588-.5.289-.5-.289v-.577l.5-.289.5.289zm-3.501 6.329-.5.289-.5-.289v-.577l.5-.289.5.289z"/><path d="m37.05 74.903-.5.289-.5-.289v-.577l.5-.289.5.289zm-1.25-3.319-.5.289-.5-.289v-.577l.5-.289.5.289zm6.001-6.908-.5.289-.5-.289v-.577l.5-.289.5.289zm4.002-1.172-.5.289-.5-.289v-.577l.5-.289.5.289zm2 1.732-.5.289-.5-.289v-.577l.5-.289.5.289z"/><path d="m42.051 63.666-.5.289-.5-.289v-.577l.5-.289.5.289zm-1 3.753-.5.289-.5-.289v-.577l.5-.289.5.289z"/><path d="m40.801 68.429-.5.289-.5-.289v-.577l.5-.289.5.289zm1-5.791-.5.289-.5-.289v-.577l.5-.289.5.289zm-4.501 8.08-1 .577-1-.577v-1.155l1-.577 1 .577zm-2 0-1 .577-1-.577v-1.155l1-.577 1 .577zm2.25 2.165-1 .577-1-.577v-1.155l1-.577 1 .577zm-11.741 1.599-1 .577-1-.577v-1.155l1-.577 1 .577zm-10.5 6.64-1 .577-1-.577v-1.155l1-.577 1 .577zm.5-6.64-1 .577-1-.577v-1.155l1-.577 1 .577zm38.492-14.908-1 .577-1-.577v-1.155l1-.577 1 .577z"/></g><g fill="#73a032" stroke-linejoin="bevel"><path d="m62.067 77.88-1 .577-1-.577v-1.155l1-.577 1 .577zm-1.288 1.569-1 .577-1-.577v-1.155l1-.577 1 .577z"/><path d="m59.778 81.18-1 .577-1-.577v-1.155l1-.577 1 .577zm11.017-3.118-1 .577-1-.577v-1.155l1-.577 1 .577z"/><path d="m71.295 80.082-1 .577-1-.577v-1.155l1-.577 1 .577zm-1 1.155-.5.289-.5-.289v-.577l.5-.289.5.289z"/><path d="m70.795 82.103-.5.289-.5-.289v-.577l.5-.289.5.289zM88.2 67.834l-.5.289-.5-.289v-.577l.5-.289.5.289z"/><path d="m71.295 81.237-.5.289-.5-.289v-.577l.5-.289.5.289zm2-.577-1 .577-1-.577v-1.155l1-.577 1 .577zm2-1.155-1 .577-1-.577V78.35l1-.577 1 .577z"/><path d="m74.295 77.773-1 .577-1-.577v-1.155l1-.577 1 .577zM43.936 30.575l-1 .577-1-.577V29.42l1-.577 1 .577zm2.001-.647-1 .577-1-.577v-1.155l1-.577 1 .577zm.059 5.232-.5.289-.5-.289v-.577l.5-.289.5.289zm.25 1.011-.5.289-.5-.289v-.577l.5-.289.5.289zm.75-1.588-.5.289-.5-.289v-.577l.5-.289.5.289z"/><path d="m46.437 30.794-.5.289-.5-.289v-.577l.5-.289.5.289zm7.814 5.622-1 .577-1-.577v-1.155l1-.577 1 .577zm4.507 4.329-1 .577-1-.577V39.59l1-.577 1 .577zm-2.5.866-1 .577-1-.577v-1.155l1-.577 1 .577zm10.869-8.115-1 .577-1-.577v-1.155l1-.577 1 .577zm-.356 6.728-1 .577-1-.577v-1.155l1-.577 1 .577zm18.521 4.31-1 .577-1-.577v-1.155l1-.577 1 .577zm-2.003-.577-1 .577-1-.577v-1.155l1-.577 1 .577zM65.45 34.841l-1 .577-1-.577v-1.155l1-.577 1 .577zm-21.071-6.325-1 .577-1-.577v-1.155l1-.577 1 .577zm.753-1.589-.5.289-.5-.289v-.577l.5-.289.5.289zm-15.284 6.966-1 .577-1-.577v-1.155l1-.577 1 .577zm-.277-2.732-1 .577-1-.577v-1.155l1-.577 1 .577zm-3.731 4.63-1 .577-1-.577v-1.155l1-.577 1 .577zm-2.004 0-1 .577-1-.577v-1.155l1-.577 1 .577zm-2-.578-1 .577-1-.577v-1.155l1-.577 1 .577zM15.9 38.721l-1 .577-1-.577v-1.155l1-.577 1 .577z"/><path d="m17.9 38.144-1 .577-1-.577v-1.155l1-.577 1 .577zm2 .577-1 .577-1-.577v-1.155l1-.577 1 .577zm-6-.577-1 .577-1-.577v-1.155l1-.577 1 .577zm18.944-4.829-1 .577-1-.577V32.16l1-.577 1 .577zm.812-1.844-1 .577-1-.577v-1.155l1-.577 1 .577zm.816-1.839-1 .577-1-.577v-1.155l1-.577 1 .577zm2.003.361-1 .577-1-.577v-1.155l1-.577 1 .577zm-1.815.688-.5.289-.5-.289v-.577l.5-.289.5.289zm-10.321 5.977-.5.289-.5-.289v-.577l.5-.289.5.289zm-12.439.331-.5.289-.5-.289v-.577l.5-.289.5.289zm-4.33 2.38-1 .577-1-.577v-1.155l1-.577 1 .577zm-2 .577-.5.289-.5-.289v-.577l.5-.289.5.289zm0 1.155-.5.289-.5-.289v-.577l.5-.289.5.289zm-1 0-.5.289-.5-.289v-.577l.5-.289.5.289z"/><path d="m4.07 41.967-.5.289-.5-.289v-.577l.5-.289.5.289zm-.75.722-.5.289-.5-.289v-.577l.5-.289.5.289zm5.25-5.052-1 .577-1-.577v-1.155l1-.577 1 .577z"/><path d="m9.57 39.369-1 .577-1-.577v-1.155l1-.577 1 .577zm5.33-2.38-.5.289-.5-.289v-.577l.5-.289.5.289zm2.203 6.051-.5.289-.5-.289v-.577l.5-.289.5.289z"/><path d="m17.603 42.174-.5.289-.5-.289v-.577l.5-.289.5.289zm-3.75-.145-.5.289-.5-.289v-.577l.5-.289.5.289zm-1.75-1.299-.5.289-.5-.289v-.577l.5-.289.5.289zm12 4.619-.5.289-.5-.289v-.577l.5-.289.5.289zm3 .577-.5.289-.5-.289v-.577l.5-.289.5.289zm.25-1.299-.5.289-.5-.289v-.577l.5-.289.5.289zm.75.722-.5.289-.5-.289v-.577l.5-.289.5.289zm0 5.196-.5.289-.5-.289v-.577l.5-.289.5.289zm-3.5-4.33-.5.289-.5-.289v-.577l.5-.289.5.289zm3.97-13.896-.5.289-.5-.289v-.577l.5-.289.5.289zm2.27.421-.5.289-.5-.289v-.577l.5-.289.5.289zm2.985-5.05-.5.289-.5-.289v-.577l.5-.289.5.289zm8.664 3.785-.5.289-.5-.289v-.577l.5-.289.5.289zm2.89-3.538-.5.289-.5-.289v-.577l.5-.289.5.289zm-1.253-1.298-.5.289-.5-.289v-.577l.5-.289.5.289z"/><path d="m44.629 25.773-.5.289-.5-.289v-.577l.5-.289.5.289zm-2.137 6.859-.5.289-.5-.289v-.577l.5-.289.5.289zm12.763 3.206-.5.289-.5-.289v-.577l.5-.289.5.289zM74.39 61.57l-.5.289-.5-.289v-.577l.5-.289.5.289zm5.504.084-.5.289-.5-.289v-.577l.5-.289.5.289zm.002-1.154-.5.289-.5-.289v-.577l.5-.289.5.289zm.75-3.32-.5.289-.5-.289v-.577l.5-.289.5.289z"/><path d="m80.146 58.046-.5.289-.5-.289v-.577l.5-.289.5.289zm-.252 8.805-.5.289-.5-.289v-.577l.5-.289.5.289zM74.39 63.88l-.5.289-.5-.289v-.577l.5-.289.5.289zm-2.761 2.15-.5.289-.5-.289v-.577l.5-.289.5.289zm4.423 2.934-.5.289-.5-.289v-.577l.5-.289.5.289zm-9.008 4.042-.5.289-.5-.289v-.577l.5-.289.5.289zm.75.722-.5.289-.5-.289v-.577l.5-.289.5.289zm0 1.155-.5.289-.5-.289v-.577l.5-.289.5.289z"/><path d="m71.129 65.164-.5.289-.5-.289v-.577l.5-.289.5.289zm-5.176-29.453-.5.289-.5-.289v-.577l.5-.289.5.289zm14.836 9.69-.5.289-.5-.289v-.577l.5-.289.5.289zm-3.252-3.38-.5.289-.5-.289v-.577l.5-.289.5.289zm-1-.289-.5.289-.5-.289v-.577l.5-.289.5.289z"/><path d="m81.788 44.825-.5.289-.5-.289v-.577l.5-.289.5.289zm3.505 6.063-.5.289-.5-.289v-.577l.5-.289.5.289zm.503-5.483-.5.289-.5-.289v-.577l.5-.289.5.289zm-.5-2.604-.5.289-.5-.289v-.577l.5-.289.5.289zm1 .577-.5.289-.5-.289v-.577l.5-.289.5.289zm.497 3.777-.5.289-.5-.289v-.577l.5-.289.5.289zm8.483-.019-.5.289-.5-.289v-.577l.5-.289.5.289zm-1 .578-.5.289-.5-.289v-.577l.5-.289.5.289zm0-1.155-.5.289-.5-.289v-.577l.5-.289.5.289zm3.25 2.165-.5.289-.5-.289v-.577l.5-.289.5.289zm1 .577-.5.289-.5-.289v-.577l.5-.289.5.289zm-4.003 1.158-.5.289-.5-.289v-.577l.5-.289.5.289zm-4.063 1.587-.5.289-.5-.289v-.577l.5-.289.5.289zm4.562 1.014-.5.289-.5-.289v-.577l.5-.289.5.289zm3.5 2.598-.5.289-.5-.289v-.577l.5-.289.5.289zm-.5-2.021-.5.289-.5-.289v-.577l.5-.289.5.289zm-3 4.042-.5.289-.5-.289v-.577l.5-.289.5.289zM87.2 67.546l-.5.289-.5-.289v-.577l.5-.289.5.289zm-1.375 2.528-.5.289-.5-.289v-.577l.5-.289.5.289zm.165-4.385-.5.289-.5-.289v-.577l.5-.289.5.289zm-1.844-1.865-.5.289-.5-.289v-.577l.5-.289.5.289zm-1.95 4.588-.5.289-.5-.289v-.577l.5-.289.5.289zm6.798-2.97-.5.289-.5-.289v-.577l.5-.289.5.289zm2-.578-.5.289-.5-.289v-.577l.5-.289.5.289zm3 0-.5.289-.5-.289v-.577l.5-.289.5.289zm-4 .578-.5.289-.5-.289v-.577l.5-.289.5.289zm5.029-15.849-.5.289-.5-.289v-.577l.5-.289.5.289zm-.5-.866-.5.289-.5-.289v-.577l.5-.289.5.289zm-10.232-5.928-.5.289-.5-.289v-.577l.5-.289.5.289zm-17.838-7.957-.5.289-.5-.289v-.577l.5-.289.5.289zm-31.621-6.738-.5.289-.5-.289v-.577l.5-.289.5.289zm-4.984 4.055-.5.289-.5-.289v-.577l.5-.289.5.289zm5.82-.899-.5.289-.5-.289v-.577l.5-.289.5.289zm2.004.355-1 .577-1-.577V30.46l1-.577 1 .577zm-5.828 3.435-1 .577-1-.577v-1.155l1-.577 1 .577zm62.679 16.564-.5.289-.5-.289v-.577l.5-.289.5.289z"/></g><g fill="#4d7122" stroke-linejoin="bevel"><path d="m85.488 31.866-.5.289-.5-.289v-.577l.5-.289.5.289z"/><path d="m86.484 31.288-.5.289-.5-.289v-.577l.5-.289.5.289zm10.342 5.063-.5.289-.5-.289v-.577l.5-.289.5.289z"/><path d="m97.326 35.485-.5.289-.5-.289v-.577l.5-.289.5.289zm1-.577-.5.289-.5-.289v-.577l.5-.289.5.289zm.108 7.634-.5.289-.5-.289v-.577l.5-.289.5.289zm-3.504 1.722-.5.289-.5-.289v-.577l.5-.289.5.289zm0 1.155-.5.289-.5-.289v-.577l.5-.289.5.289zm-2.446-4.643-.5.289-.5-.289v-.577l.5-.289.5.289zm.004-1.153-.5.289-.5-.289v-.577l.5-.289.5.289zm-10.001-2.565-.5.289-.5-.289v-.577l.5-.289.5.289zm0 4.619-.5.289-.5-.289V41.1l.5-.289.5.289zm1-.577-.5.289-.5-.289v-.577l.5-.289.5.289zm1.501-5.48-.5.289-.5-.289v-.577l.5-.289.5.289zm5.25.144-.5.289-.5-.289v-.577l.5-.289.5.289zm-1.5 0-.5.289-.5-.289v-.577l.5-.289.5.289zm.75-.722-.5.289-.5-.289v-.577l.5-.289.5.289zm0-1.155-.5.289-.5-.289v-.577l.5-.289.5.289zm-1.77 11.347-.5.289-.5-.289v-.577l.5-.289.5.289zm.5-2.023-.5.289-.5-.289v-.577l.5-.289.5.289zM99 46.838l-.5.289-.5-.289v-.577l.5-.289.5.289zm-1 .578-.5.289-.5-.289v-.577l.5-.289.5.289zm1 .577-.5.289-.5-.289v-.577l.5-.289.5.289zm-8.543-2.607-.5.289-.5-.289v-.577l.5-.289.5.289z"/><path d="m90.457 46.54-.5.289-.5-.289v-.577l.5-.289.5.289zm-.228 1.025-.5.289-.5-.289v-.577l.5-.289.5.289zM85.79 60.377l-.5.289-.5-.289V59.8l.5-.289.5.289zm1-.577-.5.289-.5-.289v-.577l.5-.289.5.289zm-1.68-2.125-.5.289-.5-.289v-.577l.5-.289.5.289zm3-4.619-.5.289-.5-.289v-.577l.5-.289.5.289zm3.5 1.443-.5.289-.5-.289v-.577l.5-.289.5.289zm1-2.887-.5.289-.5-.289v-.577l.5-.289.5.289z"/><path d="m92.86 50.602-.5.289-.5-.289v-.577l.5-.289.5.289z"/><path d="m93.36 49.736-.5.289-.5-.289v-.577l.5-.289.5.289zm-6.25.433-.5.289-.5-.289v-.577l.5-.289.5.289z"/><path d="m87.36 49.159-.5.289-.5-.289v-.577l.5-.289.5.289zm-17.353-.397-.5.289-.5-.289v-.577l.5-.289.5.289zm-2-3.175-.5.289-.5-.289v-.577l.5-.289.5.289z"/><path d="m67.757 46.597-.5.289-.5-.289v-.577l.5-.289.5.289zm-3.039 4.864-.5.289-.5-.289v-.577l.5-.289.5.289zm27.392-4.467-.5.289-.5-.289v-.577l.5-.289.5.289zm1 1.732-.5.289-.5-.289v-.577l.5-.289.5.289zm-1.653-2.763-.5.289-.5-.289v-.577l.5-.289.5.289z"/><path d="m92.86 47.715-.5.289-.5-.289v-.577l.5-.289.5.289zm1.863-4.49-.5.289-.5-.289v-.577l.5-.289.5.289zM85.488 30.71l-.5.289-.5-.289v-.577l.5-.289.5.289zm1.32-2.709-1 .577-1-.577v-1.155l1-.577 1 .577zm-14.82 5.771-1 .577-1-.577v-1.155l1-.577 1 .577zm7.499 3.864-1 .577-1-.577v-1.155l1-.577 1 .577zm-9.499-5.018-1 .577-1-.577v-1.155l1-.577 1 .577zm6.5-.866-1 .577-1-.577v-1.155l1-.577 1 .577zm-9-1.155-1 .577-1-.577v-1.155l1-.577 1 .577zm-6-5.196-1 .577-1-.577v-1.155l1-.577 1 .577zm28.23 19.256-1 .577-1-.577v-1.155l1-.577 1 .577zm0-2.312-1 .577-1-.577V41.19l1-.577 1 .577zm1.766-1.294-1 .577-1-.577v-1.155l1-.577 1 .577zm7.342-4.122-1 .577-1-.577v-1.155l1-.577 1 .577zm-15.34-7.957-.5.289-.5-.289v-.577l.5-.289.5.289zm.502-.868-.5.289-.5-.289v-.577l.5-.289.5.289zm-1.507.289-.5.289-.5-.289v-.577l.5-.289.5.289zm3.008 1.159-1 .577-1-.577v-1.155l1-.577 1 .577zM8.126 60.873l-1 .577-1-.577v-1.155l1-.577 1 .577z"/><path d="m6.626 62.316-1 .577-1-.577v-1.155l1-.577 1 .577z"/></g><path fill="#73a032" d="m52.682 50.381-.5.289-.5-.289v-.577l.5-.289.5.289z"/><g fill="#4d7122" stroke-linejoin="bevel"><path d="m61.301 56.976-2 1.155-2-1.155v-2.31l2-1.154 2 1.155zm-37.293-2.228-1 .577-1-.577v-1.155l1-.577 1 .577zm-3.28-5.036-.5.289-.5-.289v-.577l.5-.289.5.289zm1-.577-.5.289-.5-.289v-.577l.5-.289.5.289zm-3.215 3.944-.5.289-.5-.289v-.577l.5-.289.5.289zm.965-.913-.5.289-.5-.289v-.577l.5-.289.5.289zm.035 1.201-.5.289-.5-.289v-.577l.5-.289.5.289zm-.25 3.32-.5.289-.5-.289v-.577l.5-.289.5.289zm5.745.95-.5.289-.5-.289v-.577l.5-.289.5.289zm-1 0-.5.289-.5-.289v-.577l.5-.289.5.289zm2 .288-.5.289-.5-.289v-.577l.5-.289.5.289zm-1.496-4.621-.5.289-.5-.289v-.577l.5-.289.5.289zm-.034-1.138-.5.289-.5-.289v-.577l.5-.289.5.289zm2.53 6.337-.5.289-.5-.289v-.577l.5-.289.5.289z"/><path d="m19.513 57.697-.5.289-.5-.289v-.577l.5-.289.5.289zm1-3.752-.5.289-.5-.289v-.577l.5-.289.5.289z"/><path d="m19.763 55.244-1 .577-1-.577v-1.155l1-.577 1 .577zm-7.137 2.453-1 .577-1-.577v-1.155l1-.577 1 .577zm3.5-.866-.5.289-.5-.289v-.577l.5-.289.5.289z"/><path d="m16.376 57.841-.5.289-.5-.289v-.577l.5-.289.5.289zm.25-2.453-.5.289-.5-.289v-.577l.5-.289.5.289zm1.137-.144-.5.289-.5-.289v-.577l.5-.289.5.289z"/><path d="m17.626 54.233-1 .577-1-.577v-1.155l1-.577 1 .577zm7.382 2.249-1 .577-1-.577v-1.155l1-.577 1 .577zm1.004-1.734-1 .577-1-.577v-1.155l1-.577 1 .577zm45.495-4.542-1 .577-1-.577v-1.155l1-.577 1 .577zm-6.789.101-1 .577-1-.577v-1.155l1-.577 1 .577zm1-1.733-1 .577-1-.577v-1.155l1-.577 1 .577z"/><path d="m66.718 46.842-1 .577-1-.577v-1.155l1-.577 1 .577z"/><path d="m67.218 44.822-1 .577-1-.577v-1.155l1-.577 1 .577zm2.789 1.631-1 .577-1-.577v-1.155l1-.577 1 .577z"/><path d="m71.507 47.896-1 .577-1-.577v-1.155l1-.577 1 .577zm5.325 3.206-1 .577-1-.577v-1.155l1-.577 1 .577zm8.208 9.997-.5.289-.5-.289v-.577l.5-.289.5.289zm.993 2.882-.5.289-.5-.289v-.577l.5-.289.5.289zm-1.993-3.459-.5.289-.5-.289v-.577l.5-.289.5.289z"/><path d="m84.04 61.676-.5.289-.5-.289v-.577l.5-.289.5.289zM63.043 82.202l-.5.289-.5-.289v-.577l.5-.289.5.289zm3.405-.922-.5.289-.5-.289v-.577l.5-.289.5.289z"/><path d="m62.543 81.336-.5.289-.5-.289v-.577l.5-.289.5.289zm-4.501 5.193-.5.289-.5-.289v-.577l.5-.289.5.289zm-10.811 2.144-.5.289-.5-.289v-.577l.5-.289.5.289zm2.5 1.155-.5.289-.5-.289v-.577l.5-.289.5.289zm1 .577-.5.289-.5-.289v-.577l.5-.289.5.289zm-4.5-1.155-.5.289-.5-.289v-.577l.5-.289.5.289zm-15.146-3.64-.5.289-.5-.289v-.577l.5-.289.5.289zm23.396 5.516-.5.289-.5-.289v-.577l.5-.289.5.289z"/><path d="m54.981 90.26-.5.289-.5-.289v-.577l.5-.289.5.289zm-13 1.732-.5.289-.5-.289v-.577l.5-.289.5.289zm20.061-4.597-.5.289-.5-.289v-.577l.5-.289.5.289zm7.003.002-.5.289-.5-.289v-.577l.5-.289.5.289zm-1 0-.5.289-.5-.289v-.577l.5-.289.5.289zm2 0-.5.289-.5-.289v-.577l.5-.289.5.289zm3.002-.599-.5.289-.5-.289v-.577l.5-.289.5.289zm1.999-.025-.5.289-.5-.289v-.577l.5-.289.5.289zm-3.499-1.995-.5.289-.5-.289v-.577l.5-.289.5.289zm-1.002.021-.5.289-.5-.289v-.577l.5-.289.5.289zm4.998-2.335-.5.289-.5-.289v-.577l.5-.289.5.289zm-1.324-7.342-.5.289-.5-.289v-.577l.5-.289.5.289zM63.042 87.395l-.5.289-.5-.289v-.577l.5-.289.5.289zm.501-6.059-.5.289-.5-.289v-.577l.5-.289.5.289zm-5.251 2.45-.5.289-.5-.289v-.577l.5-.289.5.289zm34.004-21.019-.5.289-.5-.289v-.577l.5-.289.5.289zm-.5-1.444-.5.289-.5-.289v-.577l.5-.289.5.289zm1 .578-.5.289-.5-.289v-.577l.5-.289.5.289zm.5.866-.5.289-.5-.289v-.577l.5-.289.5.289z"/></g><g fill="#73a032" stroke-linejoin="bevel"><path d="m36.234 55.717-.5.289-.5-.289v-.577l.5-.289.5.289zm-5.5 3.176-.5.289-.5-.289v-.577l.5-.289.5.289zm-2-2.021-.5.289-.5-.289v-.577l.5-.289.5.289zm4.75-3.031-.5.289-.5-.289v-.577l.5-.289.5.289zm6.25-3.031-.5.289-.5-.289v-.577l.5-.289.5.289z"/><path d="m33.734 54.851-.5.289-.5-.289v-.577l.5-.289.5.289zm-6 2.021-.5.289-.5-.289v-.577l.5-.289.5.289zm12 1.443-.5.289-.5-.289v-.577l.5-.289.5.289zm.5 3.753-.5.289-.5-.289v-.577l.5-.289.5.289zm-.5-2.598-.5.289-.5-.289v-.577l.5-.289.5.289zm1-1.732-.5.289-.5-.289v-.577l.5-.289.5.289z"/><path d="m41.234 56.872-.5.289-.5-.289v-.577l.5-.289.5.289zm-3.5.866-.5.289-.5-.289v-.577l.5-.289.5.289zm-1-2.887-.5.289-.5-.289v-.577l.5-.289.5.289z"/></g><g fill="#4d7122" stroke-linejoin="bevel"><path d="m62.043 82.779-1 .577-1-.577v-1.155l1-.577 1 .577zM45.481 94.591l-1 .577-1-.577v-1.155l1-.577 1 .577zm-2-1.155-1 .577-1-.577v-1.155l1-.577 1 .577zm5.75-4.474-1 .577-1-.577v-1.155l1-.577 1 .577zm5.187-9.216-1 .577-1-.577v-1.155l1-.577 1 .577zm-24.556 4.169-1 .577-1-.577V82.76l1-.577 1 .577zm5.223 2.273-1 .577-1-.577v-1.155l1-.577 1 .577zm12.396 8.403-1 .577-1-.577v-1.155l1-.577 1 .577zm2-.578-1 .577-1-.577v-1.155l1-.577 1 .577zm4.5-3.753-1 .577-1-.577v-1.155l1-.577 1 .577zm13.467-8.402-.5.289-.5-.289v-.577l.5-.289.5.289zm1 .577-.5.289-.5-.289v-.577l.5-.289.5.289zM49.801 46.873l-1 .577-1-.577v-1.155l1-.577 1 .577zm3.669-5.017-1 .577-1-.577v-1.155l1-.577 1 .577zm1.5 4.908-1 .577-1-.577v-1.155l1-.577 1 .577z"/><path d="m52.47 40.124-1 .577-1-.577v-1.155l1-.577 1 .577zm-7.835-1.445-1 .577-1-.577v-1.155l1-.577 1 .577z"/><path d="m45.806 40.204-1 .577-1-.577v-1.155l1-.577 1 .577zm-4.171-3.546-1 .577-1-.577v-1.155l1-.577 1 .577zm-10.184 3.366-1 .577-1-.577v-1.155l1-.577 1 .577zm1.5-1.444-1 .577-1-.577v-1.155l1-.577 1 .577zm2 1.155-1 .577-1-.577V38.58l1-.577 1 .577zm3-5.196-1 .577-1-.577v-1.155l1-.577 1 .577zm-6.5 10.681-1 .577-1-.577v-1.155l1-.577 1 .577zm-8.5-4.33-1 .577-1-.577v-1.155l1-.577 1 .577zm-2 0-1 .577-1-.577v-1.155l1-.577 1 .577z"/><path d="m23.951 39.158-1 .577-1-.577v-1.155l1-.577 1 .577z"/><path d="m26.951 42.044-2 1.155-2-1.155v-2.31l2-1.154 2 1.155zm4 1.155-2 1.155-2-1.155v-2.31l2-1.154 2 1.155zm19.355-5.015-1 .577-1-.577v-1.155l1-.577 1 .577zm-.5-2.021-1 .577-1-.577v-1.155l1-.577 1 .577zm-2.5 6.64-.5.289-.5-.289v-.577l.5-.289.5.289zm-3.75-3.031-.5.289-.5-.289v-.577l.5-.289.5.289zm-3.171-2.104-.5.289-.5-.289v-.577l.5-.289.5.289z"/><path d="m43.806 40.782-.5.289-.5-.289v-.577l.5-.289.5.289zm-.75.722-.5.289-.5-.289v-.577l.5-.289.5.289zm5.25 1.876-.5.289-.5-.289v-.577l.5-.289.5.289zm2.495 3.286-.5.289-.5-.289v-.577l.5-.289.5.289zm-1.495-3.863-.5.289-.5-.289v-.577l.5-.289.5.289zm1.664-.658-.5.289-.5-.289v-.577l.5-.289.5.289z"/><path d="m51.47 41.279-.5.289-.5-.289v-.577l.5-.289.5.289zm2-1.155-.5.289-.5-.289v-.577l.5-.289.5.289zm-.5-1.443-.5.289-.5-.289v-.577l.5-.289.5.289zm-.25-1.299-.5.289-.5-.289v-.577l.5-.289.5.289z"/><path d="m51.97 38.103-.5.289-.5-.289v-.577l.5-.289.5.289zm-.164-3.672-1 .577-1-.577v-1.155l1-.577 1 .577z"/><path d="m51.806 32.699-.5.289-.5-.289v-.577l.5-.289.5.289zm-1 4.041-.5.289-.5-.289v-.577l.5-.289.5.289z"/><path d="m50.806 35.586-.5.289-.5-.289v-.577l.5-.289.5.289zm-1-1.155-.5.289-.5-.289v-.577l.5-.289.5.289zm-.431-6.821-.5.289-.5-.289v-.577l.5-.289.5.289zm-1.069 9.419-.5.289-.5-.289v-.577l.5-.289.5.289zm-.5.866-.5.289-.5-.289v-.577l.5-.289.5.289z"/></g><g fill="#73a032" stroke-linejoin="bevel"><path d="m83.896 65.412-1 .577-1-.577v-1.155l1-.577 1 .577zm-20.08 10.3-.5.289-.5-.289v-.577l.5-.289.5.289zm-3.249.724-.5.289-.5-.289v-.577l.5-.289.5.289zm-2.539 5.466-.5.289-.5-.289v-.577l.5-.289.5.289zm-37.059-24.79-.5.289-.5-.289v-.577l.5-.289.5.289zm1 4.042-.5.289-.5-.289v-.577l.5-.289.5.289zm-.5-.866-.5.289-.5-.289v-.577l.5-.289.5.289zm-1-.578-.5.289-.5-.289v-.577l.5-.289.5.289zm-2.25-1.01-.5.289-.5-.289v-.577l.5-.289.5.289zm-3.046.91-.5.289-.5-.289v-.577l.5-.289.5.289zm-1 .577-.5.289-.5-.289v-.577l.5-.289.5.289zm.25-1.299-.5.289-.5-.289v-.577l.5-.289.5.289zm-6.36-7.266-.5.289-.5-.289v-.577l.5-.289.5.289zm-1 2.31-.5.289-.5-.289v-.577l.5-.289.5.289zm3.999-4.042-.5.289-.5-.289v-.577l.5-.289.5.289zm-1.999 1.155-.5.289-.5-.289v-.577l.5-.289.5.289zm9.11 10.297-.5.289-.5-.289v-.577l.5-.289.5.289z"/><path d="m18.173 62.496-.5.289-.5-.289v-.577l.5-.289.5.289zm1.93-19.456-.5.289-.5-.289v-.577l.5-.289.5.289zm2.866 23.887-.5.289-.5-.289v-.577l.5-.289.5.289zm0-1.155-.5.289-.5-.289v-.577l.5-.289.5.289zm-5-8.083-.5.289-.5-.289v-.577l.5-.289.5.289zm4-.577-.5.289-.5-.289v-.577l.5-.289.5.289zm-.5-.866-.5.289-.5-.289v-.577l.5-.289.5.289zm28.593 15.093-.5.289-.5-.289v-.577l.5-.289.5.289zm1 0-.5.289-.5-.289v-.577l.5-.289.5.289zm-1.5-4.33-.5.289-.5-.289v-.577l.5-.289.5.289zm-6.5.289-.5.289-.5-.289v-.577l.5-.289.5.289zm1.5.288-.5.289-.5-.289v-.577l.5-.289.5.289zm-.5-.866-.5.289-.5-.289v-.577l.5-.289.5.289zm-4.25 4.186-.5.289-.5-.289v-.577l.5-.289.5.289z"/><path d="m40.062 69.896-.5.289-.5-.289v-.577l.5-.289.5.289zm-1 0-.5.289-.5-.289v-.577l.5-.289.5.289zm.25-1.011-.5.289-.5-.289v-.577l.5-.289.5.289zm1.75 1.299-.5.289-.5-.289v-.577l.5-.289.5.289zm3-5.484-.5.289-.5-.289v-.577l.5-.289.5.289z"/><path d="m43.812 65.71-.5.289-.5-.289v-.577l.5-.289.5.289zm6.5.577-.5.289-.5-.289v-.577l.5-.289.5.289zM7.563 55.952l-1 .577-1-.577v-1.155l1-.577 1 .577zm-1.5 1.444-1 .577-1-.577v-1.155l1-.577 1 .577zm6.54-8.294-1 .577-1-.577v-1.155l1-.577 1 .577zm-.541 2.52-1 .577-1-.577v-1.155l1-.577 1 .577z"/><path d="m14.103 50.545-1 .577-1-.577V49.39l1-.577 1 .577z"/></g><g fill="#4d7122" stroke-linejoin="bevel"><path d="m71.507 55.979-.5.289-.5-.289v-.577l.5-.289.5.289z"/><path d="m72.007 55.113-.5.289-.5-.289v-.577l.5-.289.5.289zm6.514 1.392-.5.289-.5-.289v-.577l.5-.289.5.289zm-1.5 4.33-.5.289-.5-.289v-.577l.5-.289.5.289zm1-.577-.5.289-.5-.289v-.577l.5-.289.5.289z"/><path d="m78.021 61.412-.5.289-.5-.289v-.577l.5-.289.5.289zm-6.264-7.309-.5.289-.5-.289v-.577l.5-.289.5.289zm-.5-.867-.5.289-.5-.289v-.577l.5-.289.5.289zm-.5-.866-.5.289-.5-.289v-.577l.5-.289.5.289z"/><path d="m70.507 51.36-.5.289-.5-.289v-.577l.5-.289.5.289z"/></g><g fill="#73a032" stroke-linejoin="bevel"><path d="m64.961 55.718-.5.289-.5-.289v-.577l.5-.289.5.289zm-2-1.155-.5.289-.5-.289v-.577l.5-.289.5.289zm0-2.309-.5.289-.5-.289v-.577l.5-.289.5.289zm1 .577-.5.289-.5-.289v-.577l.5-.289.5.289z"/><path d="m62.961 53.409-.5.289-.5-.289v-.577l.5-.289.5.289zm1.5 3.753-.5.289-.5-.289v-.577l.5-.289.5.289z"/></g><g fill="#4d7122" stroke-linejoin="bevel"><path d="m65.918 63.291-1 .577-1-.577v-1.155l1-.577 1 .577zm5-1.154-1 .577-1-.577v-1.155l1-.577 1 .577zm5.103-6.498-1 .577-1-.577v-1.155l1-.577 1 .577zm-9.103 2.456-1 .577-1-.577V56.94l1-.577 1 .577zm11.103-2.456-1 .577-1-.577v-1.155l1-.577 1 .577zM24.81 72.749l-1 .577-1-.577v-1.155l1-.577 1 .577zm2-3.464-1 .577-1-.577V68.13l1-.577 1 .577zm1.193-3.595-1 .577-1-.577v-1.155l1-.577 1 .577zm6.297-.168-1 .577-1-.577v-1.155l1-.577 1 .577z"/><path d="m25.31 70.15-.5.289-.5-.289v-.577l.5-.289.5.289zm1.988-2.319-.5.289-.5-.289v-.577l.5-.289.5.289zm-.295-.987-.5.289-.5-.289v-.577l.5-.289.5.289zm4.805-2.182-.5.289-.5-.289v-.577l.5-.289.5.289zm-6.998 6.355-.5.289-.5-.289v-.577l.5-.289.5.289zm47.608-7.437-1 .577-1-.577v-1.155l1-.577 1 .577zM35.585 81.858l-1 .577-1-.577v-1.155l1-.577 1 .577zm5.503 3.176-1 .577-1-.577v-1.155l1-.577 1 .577z"/><path d="m35.085 83.878-1 .577-1-.577v-1.155l1-.577 1 .577zm-2 1.732-1 .577-1-.577v-1.155l1-.577 1 .577zm-3-.288-.5.289-.5-.289v-.577l.5-.289.5.289zm6 .866-.5.289-.5-.289v-.577l.5-.289.5.289zm-7.223-4.005-.5.289-.5-.289v-.577l.5-.289.5.289zm-.25-1.011-.5.289-.5-.289v-.577l.5-.289.5.289zm-8.28-53.022-1 .577-1-.577v-1.155l1-.577 1 .577zm2 0-1 .577-1-.577v-1.155l1-.577 1 .577zm1 3.753-.5.289-.5-.289v-.577l.5-.289.5.289z"/><path d="m22.582 32.624-.5.289-.5-.289v-.577l.5-.289.5.289zm1 .289-.5.289-.5-.289v-.577l.5-.289.5.289zm-4.75 1.151-.5.289-.5-.289v-.577l.5-.289.5.289zm-.5-3.753-.5.289-.5-.289v-.577l.5-.289.5.289zm-3 4.041-.5.289-.5-.289v-.577l.5-.289.5.289zm4.75-8.078-.5.289-.5-.289v-.577l.5-.289.5.289zm-1-.289-.5.289-.5-.289v-.577l.5-.289.5.289zm2 .577-.5.289-.5-.289v-.577l.5-.289.5.289zm7.793-1.55-1 .577-1-.577v-1.155l1-.577 1 .577zm-.75-2.454-.5.289-.5-.289v-.577l.5-.289.5.289z"/><path d="m28.875 23.28-.5.289-.5-.289v-.577l.5-.289.5.289zm-.75-1.877-.5.289-.5-.289v-.577l.5-.289.5.289zm-.75 6.207-1 .577-1-.577v-1.155l1-.577 1 .577zm-13.043 3.856-1 .577-1-.577v-1.155l1-.577 1 .577zm1.5-1.444-1 .577-1-.577v-1.155l1-.577 1 .577zm17.043-4.433-1 .577-1-.577v-1.155l1-.577 1 .577z"/><path d="m34.375 24.146-1 .577-1-.577v-1.155l1-.577 1 .577z"/><path d="m35.375 25.878-1 .577-1-.577v-1.155l1-.577 1 .577zm1.5-1.444-1 .577-1-.577v-1.155l1-.577 1 .577zm2.5.866-1 .577-1-.577v-1.155l1-.577 1 .577zm9 3.465-1 .577-1-.577V27.61l1-.577 1 .577zm-4-6.351-1 .577-1-.577v-1.155l1-.577 1 .577zm24.613 2.121-1 .577-1-.577V23.38l1-.577 1 .577zm-21.113-2.41-1 .577-1-.577V20.97l1-.577 1 .577zm4 2.309-1 .577-1-.577v-1.155l1-.577 1 .577z"/><path d="m37.375 26.455-1 .577-1-.577V25.3l1-.577 1 .577zm9-2.887-1 .577-1-.577v-1.155l1-.577 1 .577zm-20.043 6.891-2 1.155-2-1.155v-2.31l2-1.154 2 1.155zm-5.523 46.332-.5.289-.5-.289v-.577l.5-.289.5.289zm-.5 4.331-.5.289-.5-.289v-.577l.5-.289.5.289z"/><path d="m19.809 80.256-.5.289-.5-.289v-.577l.5-.289.5.289zm-1 .577-.5.289-.5-.289v-.577l.5-.289.5.289zm-2.5.289-.5.289-.5-.289v-.577l.5-.289.5.289zm10.501-6.641-.5.289-.5-.289v-.577l.5-.289.5.289zm1 0-.5.289-.5-.289v-.577l.5-.289.5.289z"/></g><g fill="#73a032" stroke-linejoin="bevel"><path d="m37.479 38.136-.5.289-.5-.289v-.577l.5-.289.5.289zm3 1.732-.5.289-.5-.289v-.577l.5-.289.5.289zm1.25.144-.5.289-.5-.289v-.577l.5-.289.5.289z"/><path d="m41.229 39.146-.5.289-.5-.289v-.577l.5-.289.5.289zm.813-.686-.5.289-.5-.289v-.577l.5-.289.5.289zm-.063 8.625-1 .577-1-.577V45.93l1-.577 1 .577zm5.5-1.444-1 .577-1-.577v-1.155l1-.577 1 .577z"/></g><g fill="#4d7122" stroke-linejoin="bevel"><path d="m54.551 56.832-.5.289-.5-.289v-.577l.5-.289.5.289zm1.75-1.01-.5.289-.5-.289v-.577l.5-.289.5.289z"/><path d="m55.301 56.11-.5.289-.5-.289v-.577l.5-.289.5.289zm-5.5-8.083-.5.289-.5-.289v-.577l.5-.289.5.289zm4.75 9.96-.5.289-.5-.289v-.577l.5-.289.5.289zM13.832 29.445l-1 .577-1-.577V28.29l1-.577 1 .577zM5.57 43.988l-1 .577-1-.577v-1.155l1-.577 1 .577zm3.5-3.176-.5.289-.5-.289v-.577l.5-.289.5.289zm1 0-.5.289-.5-.289v-.577l.5-.289.5.289zm37.805-10.604-.5.289-.5-.289v-.577l.5-.289.5.289zm3-4.619-.5.289-.5-.289v-.577l.5-.289.5.289zm-.5-2.598-.5.289-.5-.289v-.577l.5-.289.5.289zm-1 0-.5.289-.5-.289v-.577l.5-.289.5.289z"/></g><path fill="#73a032" d="m57.461 58.894-1 .577-1-.577v-1.155l1-.577 1 .577z"/><g fill="#4d7122" stroke-linejoin="bevel"><path d="m56.168 64.879-.5.289-.5-.289v-.577l.5-.289.5.289zm-1-.577-.5.289-.5-.289v-.577l.5-.289.5.289zm-.613-.824-.5.289-.5-.289v-.577l.5-.289.5.289zm-1 .578-.5.289-.5-.289v-.577l.5-.289.5.289z"/><path d="m53.055 64.922-.5.289-.5-.289v-.577l.5-.289.5.289z"/><path d="m52.305 65.643-.5.289-.5-.289v-.577l.5-.289.5.289z"/><path d="m51.805 66.509-.5.289-.5-.289v-.577l.5-.289.5.289z"/><path d="m51.686 67.595-.5.289-.5-.289v-.577l.5-.289.5.289zm-.75.722-.5.289-.5-.289v-.577l.5-.289.5.289z"/><path d="m51.186 69.327-.5.289-.5-.289v-.577l.5-.289.5.289zm-1 .289-.5.289-.5-.289v-.577l.5-.289.5.289zm4.615-9.176-.5.289-.5-.289v-.577l.5-.289.5.289zm-39.175-4.475-2 1.155-2-1.155v-2.31l2-1.154 2 1.155zm9.852-3.222-.5.289-.5-.289v-.577l.5-.289.5.289zm.53 3.162-.5.289-.5-.289v-.577l.5-.289.5.289z"/></g><g fill="#73a032" stroke-linejoin="bevel"><path d="m68.044 68.099-.5.289-.5-.289v-.577l.5-.289.5.289zM13.4 36.123l-1 .577-1-.577v-1.155l1-.577 1 .577zm1 0-.5.289-.5-.289v-.577l.5-.289.5.289z"/><path d="m13.4 34.391-.5.289-.5-.289v-.577l.5-.289.5.289zm-.75-.722-.5.289-.5-.289v-.577l.5-.289.5.289zm8.686 3.565-1 .577-1-.577v-1.155l1-.577 1 .577z"/></g><g fill="#4d7122" stroke-linejoin="bevel"><path d="m20.978 48.413-.5.289-.5-.289v-.577l.5-.289.5.289zm-4.352 10.439-.5.289-.5-.289v-.577l.5-.289.5.289zm-1.25-1.299-.5.289-.5-.289v-.577l.5-.289.5.289zm16.922 13.743-.5.289-.5-.289v-.577l.5-.289.5.289zm-2.5.288-.5.289-.5-.289v-.577l.5-.289.5.289zm.012 1.165-.5.289-.5-.289v-.577l.5-.289.5.289zm1.488-.876-.5.289-.5-.289v-.577l.5-.289.5.289zm.75.722-.5.289-.5-.289v-.577l.5-.289.5.289zm-16.239-.422-1 .577-1-.577v-1.155l1-.577 1 .577zm-7.5-.866-1 .577-1-.577v-1.155l1-.577 1 .577zm8-1.155-1 .577-1-.577v-1.155l1-.577 1 .577zm2-.577-1 .577-1-.577V68.42l1-.577 1 .577zm3 1.154-1 .577-1-.577v-1.155l1-.577 1 .577z"/><path d="m21.809 68.709-1 .577-1-.577v-1.155l1-.577 1 .577zm-.75-1.877-.5.289-.5-.289v-.577l.5-.289.5.289zm-11.25 7.073-.5.289-.5-.289v-.577l.5-.289.5.289zm10.5-12.413-.5.289-.5-.289v-.577l.5-.289.5.289z"/><path d="m20.809 63.512-1 .577-1-.577v-1.155l1-.577 1 .577zm0 2.31-.5.289-.5-.289v-.577l.5-.289.5.289zm-.25-1.011-.5.289-.5-.289v-.577l.5-.289.5.289zm-8.75 9.094-1 .577-1-.577V72.75l1-.577 1 .577zm-2-1.155-1 .577-1-.577v-1.155l1-.577 1 .577zm4 .577-1 .577-1-.577v-1.155l1-.577 1 .577zm0 6.351-.5.289-.5-.289v-.577l.5-.289.5.289z"/><path d="m13.809 78.557-.5.289-.5-.289v-.577l.5-.289.5.289zm-6-5.807-.5.289-.5-.289v-.577l.5-.289.5.289zm-1-.577-.5.289-.5-.289v-.577l.5-.289.5.289zm1.5-2.599-.5.289-.5-.289v-.577l.5-.289.5.289zm12.5 3.176-.5.289-.5-.289v-.577l.5-.289.5.289zm.5-.866-.5.289-.5-.289v-.577l.5-.289.5.289zm-3.477-37.243-.5.289-.5-.289v-.577l.5-.289.5.289zm1 .577-.5.289-.5-.289v-.577l.5-.289.5.289zm0 1.155-.5.289-.5-.289v-.577l.5-.289.5.289zm6.869 8.414-.5.289-.5-.289v-.577l.5-.289.5.289z"/><path d="m25.951 45.797-.5.289-.5-.289v-.577l.5-.289.5.289zM16.332 34.93l-.5.289-.5-.289v-.577l.5-.289.5.289z"/><path d="m15.832 35.796-.5.289-.5-.289v-.577l.5-.289.5.289zm-1.5-3.176-.5.289-.5-.289v-.577l.5-.289.5.289zm4.75-8.079-.5.289-.5-.289v-.577l.5-.289.5.289zm.75.722-.5.289-.5-.289v-.577l.5-.289.5.289zm22.803 11.395-.5.289-.5-.289v-.577l.5-.289.5.289zm1 .288-.5.289-.5-.289v-.577l.5-.289.5.289zm-3.75-1.587-.5.289-.5-.289v-.577l.5-.289.5.289zm1-.577-.5.289-.5-.289v-.577l.5-.289.5.289zm-4.434 2.355-2 1.155-2-1.155v-2.31l2-1.154 2 1.155zm3.434-2.933-1 .577-1-.577v-1.155l1-.577 1 .577zm-13.934 9.572-.5.289-.5-.289v-.577l.5-.289.5.289zm-1 0-.5.289-.5-.289v-.577l.5-.289.5.289zM80.796 86.34l-.5.289-.5-.289v-.577l.5-.289.5.289zm1.75-2.391-.5.289-.5-.289v-.577l.5-.289.5.289z"/><path d="m82.546 85.041-.5.289-.5-.289v-.577l.5-.289.5.289zm-.75.722-.5.289-.5-.289v-.577l.5-.289.5.289zM33.3 63.789l-1 .577-1-.577v-1.155l1-.577 1 .577zm17.001-14.896-.5.289-.5-.289v-.577l.5-.289.5.289zm0 1.155-.5.289-.5-.289v-.577l.5-.289.5.289zm.75.722-.5.289-.5-.289v-.577l.5-.289.5.289z"/><path d="m52.051 52.502-1 .577-1-.577v-1.155l1-.577 1 .577zm9.25 1.01-1 .577-1-.577v-1.155l1-.577 1 .577z"/><path d="m60.801 51.492-1 .577-1-.577v-1.155l1-.577 1 .577zm1.5-1.444-1 .577-1-.577v-1.155l1-.577 1 .577z"/></g><path fill="#73a032" d="m39.979 46.507-.5.289-.5-.289v-.577l.5-.289.5.289z"/><path fill="#73a032" d="m39.479 47.373-.5.289-.5-.289v-.577l.5-.289.5.289z"/><g fill="#4d7122" stroke-linejoin="bevel"><path d="m41.801 55.421-.5.289-.5-.289v-.577l.5-.289.5.289zm-1.539-1.684-.5.289-.5-.289v-.577l.5-.289.5.289zm.5-1.732-.5.289-.5-.289v-.577l.5-.289.5.289zm-5.5 2.021-.5.289-.5-.289v-.577l.5-.289.5.289zm-4.25 1.299-.5.289-.5-.289v-.577l.5-.289.5.289zm1-2.887-.5.289-.5-.289v-.577l.5-.289.5.289zm6.75-2.742-.5.289-.5-.289v-.577l.5-.289.5.289z"/><path d="m39.262 48.83-.5.289-.5-.289v-.577l.5-.289.5.289zm1.75 4.186-.5.289-.5-.289v-.577l.5-.289.5.289z"/></g><path fill="#73a032" d="m46.338 49.519-.5.289-.5-.289v-.577l.5-.289.5.289zm1.75-1.877-.5.289-.5-.289v-.577l.5-.289.5.289zm10.098-1.43-.5.289-.5-.289v-.577l.5-.289.5.289zm-1-.577-.5.289-.5-.289v-.577l.5-.289.5.289z"/><g fill="#4d7122" stroke-linejoin="bevel"><path d="m35.512 53.016-.5.289-.5-.289v-.577l.5-.289.5.289zm.75-1.011-.5.289-.5-.289v-.577l.5-.289.5.289zm1.5-2.598-.5.289-.5-.289v-.577l.5-.289.5.289zm-5.75 4.763-1 .577-1-.577v-1.155l1-.577 1 .577zm-2 1.155-1 .577-1-.577V54.17l1-.577 1 .577zm-2 0-1 .577-1-.577V54.17l1-.577 1 .577zm-5.004.58-.5.289-.5-.289v-.577l.5-.289.5.289zM33.3 70.718l-.5.289-.5-.289v-.577l.5-.289.5.289zm51.187-30.196-.5.289-.5-.289v-.577l.5-.289.5.289zm1 .578-.5.289-.5-.289v-.577l.5-.289.5.289z"/><path d="m83.987 39.656-.5.289-.5-.289v-.577l.5-.289.5.289zm2.5 1.732-.5.289-.5-.289v-.577l.5-.289.5.289zm1 .578-.5.289-.5-.289v-.577l.5-.289.5.289zm5.623 4.739-.5.289-.5-.289v-.577l.5-.289.5.289z"/></g></svg>