<svg xmlns="http://www.w3.org/2000/svg" xml:space="preserve" width="100" height="115.47"><path fill="#9a8d5e" stroke="#b3b3b3" d="M99.5 86.314 50 114.893.5 86.314V29.156L50 .577l49.5 28.579z"/><path fill="#fff" fill-opacity=".25" d="M70 60.774 50 49.227v11.547l10 5.774z"/><path fill-opacity=".25" d="m60 43.453-10 5.774 20 11.547V49.226z"/><path fill="#fff" fill-opacity=".25" d="m67.5 95.67-15-8.66v8.66L60 100z"/><path fill-opacity=".25" d="m60 82.68-7.5 4.33 15 8.66v-8.66z"/><path fill="#fff" fill-opacity=".25" d="m32.5 47.217-25-14.434v14.434L20 54.434z"/><path fill-opacity=".25" d="M20 25.566 7.5 32.783l25 14.434V32.783z"/><path fill="#fff" fill-opacity=".25" d="m77.5 34.33-15-8.66v8.66l7.5 4.33z"/><path fill-opacity=".25" d="m70 21.34-7.5 4.33 15 8.66v-8.66z"/><path fill="#fff" fill-opacity=".25" d="m25 72.887-10-5.773v5.773l5 2.887z"/><path fill-opacity=".25" d="m20 64.226-5 2.887 10 5.773v-5.773z"/><path fill="#fff" fill-opacity=".25" d="m80 82.887-10-5.773v5.773l5 2.887z"/><path fill-opacity=".25" d="m75 74.226-5 2.887 10 5.773v-5.773z"/><path fill="#fff" fill-opacity=".25" d="m32.5 93.557-10-5.773v5.773l5 2.887z"/><path fill-opacity=".25" d="m27.5 84.896-5 2.887 10 5.773v-5.773z"/><path fill="#fff" fill-opacity=".25" d="m53.75 22.835-15-8.66v8.66l7.5 4.33z"/><path fill-opacity=".25" d="m46.25 9.845-7.5 4.33 15 8.66v-8.66z"/><path fill="#fff" fill-opacity=".25" d="m93.75 52.835-15-8.66v8.66l7.5 4.33z"/><path fill-opacity=".25" d="m86.25 39.845-7.5 4.33 15 8.66v-8.66z"/><path fill="#fff" fill-opacity=".25" d="m38.75 82.731-15-8.66v8.66l7.5 4.33z"/><path fill-opacity=".25" d="m31.25 69.741-7.5 4.33 15 8.66v-8.66z"/></svg>