<svg xmlns="http://www.w3.org/2000/svg" xml:space="preserve" width="100" height="115.47"><g fill="#6c9942"><path d="m67.588 51.531-3-1.732v-3.464l3-1.732 3 1.732v3.464zM22.159 84.737l-3-1.732V79.54l3-1.732 3 1.732v3.464zm32.127-13.053-2.5-1.443v-2.887l2.5-1.444 2.5 1.444v2.887zm.637 4.265-2-1.155v-2.31l2-1.154 2 1.155v2.31zm.599-9.331-1.5-.866V64.02l1.5-.866 1.5.866v1.732zM68.32 45.003l-2-1.155v-2.31l2-1.154 2 1.155v2.31zm-40.102-2.006-2-1.155v-2.31l2-1.154 2 1.155v2.31zm29.785-5.14-2-1.155v-2.31l2-1.154 2 1.155v2.31zM13.126 64.646l-2.5-1.443v-2.888l2.5-1.443 2.5 1.444v2.886zm48.272-44.24-2-1.155v-2.31l2-1.154 2 1.155v2.31zm-9.602-.505-2-1.155v-2.31l2-1.154 2 1.155v2.31zm-7.713-2.009-1.5-.866v-1.732l1.5-.866 1.5.866v1.732zm8.042 5.285-1.5-.866v-1.732l1.5-.866 1.5.866v1.732zm.567 3.138-1.5-.866v-1.732l1.5-.866 1.5.866v1.732zm-15.014-8.022-1.5-.866v-1.732l1.5-.866 1.5.866v1.732zm6.377-3.853-1.5-.866v-1.732l1.5-.866 1.5.866v1.732zm8.439 1.242-1.5-.866v-1.732l1.5-.866 1.5.866v1.732zm.486-3.186-1-.577v-1.155l1-.577 1 .577v1.155zm-8.449-1.249-1-.577V9.515l1-.577 1 .577v1.155zm-6.529 3.767-1-.577v-1.155l1-.577 1 .577v1.155zm.295-2.141-.5-.289v-.577l.5-.289.5.289v.577zm-.765 9.958-2-1.155v-2.31l2-1.154 2 1.155v2.31zm.18 5.679-2.5-1.443V24.18l2.5-1.444 2.5 1.444v2.887zm-13.364-.003-2-1.155v-2.31l2-1.154 2 1.155v2.31zm-13.73 16.439-2-1.155v-2.31l2-1.154 2 1.155v2.31zM40.14 74.991l-2-1.155v-2.31l2-1.154 2 1.155v2.31zm28.042-19.175-2-1.155v-2.31l2-1.154 2 1.155v2.31zm9.598 17.347-2-1.155v-2.31l2-1.154 2 1.155v2.31zM40.652 70.65l-1.5-.866v-1.732l1.5-.866 1.5.866v1.732zm4.815 8.24-1.5-.866v-1.732l1.5-.866 1.5.866v1.732zm.829 2.988-1.5-.866V79.28l1.5-.866 1.5.866v1.732zM36.469 42.12l-1.5-.866v-1.732l1.5-.866 1.5.866v1.732zm-.158-3.378-1-.577V37.01l1-.577 1 .577v1.155zm17.393 51.286-1.5-.866V87.43l1.5-.866 1.5.866v1.732zM32.55 83.544l-1.5-.866v-1.732l1.5-.866 1.5.866v1.732zm-9.362-5.158-1.5-.866v-1.732l1.5-.866 1.5.866v1.732zm.287 9.058-1.5-.866v-1.732l1.5-.866 1.5.866v1.732zM8.742 80.335l-1.5-.866v-1.732l1.5-.866 1.5.866v1.732zm.414-3.229-1-.577v-1.155l1-.577 1 .577v1.155zm.207 9.368-1-.577v-1.155l1-.577 1 .577v1.155zm11.61-.111-1-.577V84.63l1-.577 1 .577v1.155zm24.999-10.647-1-.577v-1.155l1-.577 1 .577v1.155zm-4.228.663-1-.577v-1.155l1-.577 1 .577v1.155zm12.268 10.36-1-.577v-1.155l1-.577 1 .577v1.155zM67.753 78.4l-.5-.289v-.577l.5-.289.5.289v.577zm-.003 1.156-.5-.289v-.577l.5-.289.5.289v.577zm-13.821 4.92-.5-.289v-.577l.5-.289.5.289v.577zm12.824-8.387-.5-.289v-.577l.5-.289.5.289v.577z"/><path d="m65.754 75.514-.5-.289v-.577l.5-.289.5.289v.577zm-1.004-.004-.5-.289v-.577l.5-.289.5.289v.577zm-41.242-.404-1-.577v-1.155l1-.577 1 .577v1.155zm.256-2.164-.5-.289v-.577l.5-.289.5.289v.577zm.107-1.096-.5-.289v-.577l.5-.289.5.289v.577zm16.406-4.445-.5-.289v-.577l.5-.289.5.289v.577zm.63-.793-.5-.289v-.577l.5-.289.5.289v.577zm5.888 7.27-.5-.289v-.577l.5-.289.5.289v.577zm-1.002-.368-.5-.289v-.577l.5-.289.5.289v.577zm.82-.683-.5-.289v-.577l.5-.289.5.289v.577zm.184 9.917-.5-.289v-.577l.5-.289.5.289v.577zm.5.868-.5-.289v-.577l.5-.289.5.289v.577zm-6.016-16.063-.5-.289v-.577l.5-.289.5.289v.577zm-26.868-7.936-1.5-.866v-1.732l1.5-.866 1.5.866v1.732zm-.843 9.403-2-1.155v-2.31l2-1.154 2 1.155v2.31zm-6.821-2.731-1.5-.866v-1.732l1.5-.866 1.5.866v1.732zm.685-3.074-1-.577v-1.155l1-.577 1 .577v1.155zm-.344 5.192-1-.577V66.67l1-.577 1 .577v1.155zm14.993-5.61-1.5-.866v-1.732l1.5-.866 1.5.866v1.732zm.287 2.148-1-.577v-1.155l1-.577 1 .577v1.155zm.154-5.365-.5-.289v-.577l.5-.289.5.289v.577zm-7.211-2.913-1-.577V54.93l1-.577 1 .577v1.155zm13.652-17.858-1.5-.866v-1.732l1.5-.866 1.5.866v1.732zM7.156 36.964l-1.5-.866v-1.732l1.5-.866 1.5.866v1.732zm10.018 5.721-1.5-.866v-1.732l1.5-.866 1.5.866v1.732zm2.014-11.158-1.5-.866v-1.732l1.5-.866 1.5.866v1.732zm-5.44-2.856-1-.577v-1.155l1-.577 1 .577v1.155zm5.287 5.081-1-.577V32.02l1-.577 1 .577v1.155zm-7.513 7.091-1-.577V39.11l1-.577 1 .577v1.155zm18.649-4.808-1-.577v-1.155l1-.577 1 .577v1.155zm6.989 7.997-1-.577V42.3l1-.577 1 .577v1.155zM25.719 30.028l-1-.577v-1.155l1-.577 1 .577v1.155zm-9.161 9.548-.5-.289v-.577l.5-.289.5.289v.577zm1.002-.134-.5-.289v-.577l.5-.289.5.289v.577zm-11.732-.933-1-.577v-1.155l1-.577 1 .577v1.155zm1.624-4.844-.5-.289V32.8l.5-.289.5.289v.577zm-.12 4.353-.5-.289v-.577l.5-.289.5.289v.577zm4.648.777-.5-.289v-.577l.5-.289.5.289v.577zm-1.969 1.875-.5-.289v-.577l.5-.289.5.289v.577zm1.603 4.858-.5-.289v-.577l.5-.289.5.289v.577zm1.003-.58-.5-.289v-.577l.5-.289.5.289v.577zm-5.613-5.961-.5-.289v-.577l.5-.289.5.289v.577zm12.938-10.49-.5-.289v-.577l.5-.289.5.289v.577zm-1.003-.293-.5-.289v-.577l.5-.289.5.289v.577zm-4.611-1.508-.5-.289v-.577l.5-.289.5.289v.577zm.134-1.079-.5-.289v-.577l.5-.289.5.289v.577zm5.232 1.865-.5-.289v-.577l.5-.289.5.289v.577zm55.67 14.683-2-1.155V38.7l2-1.154 2 1.155v2.31zm7.526 7.779-2-1.155v-2.31l2-1.154 2 1.155v2.31zm-5.701 6.918-2-1.155v-2.31l2-1.154 2 1.155v2.31zm-.035 20.574-2-1.155v-2.31l2-1.154 2 1.155v2.31zm9.563 5.804-2-1.155v-2.31l2-1.154 2 1.155v2.31zM68.262 71.509l-2-1.155v-2.31l2-1.154 2 1.155v2.31zm.23-4.493-1.5-.866v-1.732l1.5-.866 1.5.866v1.732zm.493 7.542-1.5-.866V71.96l1.5-.866 1.5.866v1.732zm-2.233 7.886-1.5-.866v-1.732l1.5-.866 1.5.866v1.732zm-4.88-17.04-1.5-.866v-1.732l1.5-.866 1.5.866v1.732zm1.077-2.849-1.5-.866v-1.732l1.5-.866 1.5.866v1.732zm1.64-2.523-1.5-.866v-1.732l1.5-.866 1.5.866v1.732zM87.501 79.07l-1-.577v-1.155l1-.577 1 .577v1.155zm-9.407.134-1-.577v-1.155l1-.577 1 .577v1.155zm5.388-33.546-1.5-.866V43.06l1.5-.866 1.5.866v1.732zm.143 7.326-1.5-.866v-1.732l1.5-.866 1.5.866v1.732zm.29-22.663-1.5-.866v-1.732l1.5-.866 1.5.866v1.732zm-24.868 3.51-1.5-.866v-1.732l1.5-.866 1.5.866v1.732zM88.22 57.213l-1.5-.866v-1.732l1.5-.866 1.5.866v1.732zm-10.986-4.951-1-.577V50.53l1-.577 1 .577v1.155zM68.899 40.7l-1-.577v-1.155l1-.577 1 .577v1.155zm15.378 1.942-1-.577V40.91l1-.577 1 .577v1.155zm4.137 11.21-1-.577V52.12l1-.577 1 .577v1.155zm.298-2.145-1-.577v-1.155l1-.577 1 .577v1.155zm1.978-9.953-1-.577v-1.155l1-.577 1 .577v1.155zm-.154 2.222-1-.577v-1.155l1-.577 1 .577v1.155zM87.62 60.344l-1.5-.866v-1.732l1.5-.866 1.5.866v1.732zM25.436 24.509l-1.5-.866v-1.732l1.5-.866 1.5.866v1.732zm6.432 63.266-2-1.155v-2.31l2-1.154 2 1.155v2.31zm33.38-7.932-2-1.155v-2.31l2-1.154 2 1.155v2.31zm-51.88-46.758-2-1.155v-2.31l2-1.154 2 1.155v2.31zm62.12 4.526-1-.577v-1.155l1-.577 1 .577v1.155zm1.184 6.109-1-.577v-1.155l1-.577 1 .577v1.155zm7.792-16.559-1-.577v-1.155l1-.577 1 .577v1.155zm.005 5.152-1-.577V30.58l1-.577 1 .577v1.155zm-7.154-3.236-1-.577v-1.155l1-.577 1 .577V28.5zm.3-2.138-.5-.289v-.577l.5-.289.5.289v.577zm.174-1.056-.5-.289v-.577l.5-.289.5.289v.577zm.281-.994-.5-.289v-.577l.5-.289.5.289v.577zm-2.3 10.574-.5-.289v-.577l.5-.289.5.289v.577zm-15.909-4.627-.5-.289v-.577l.5-.289.5.289v.577zm-1.087-.312-.5-.289v-.577l.5-.289.5.289v.577zm.812-.687-.5-.289v-.577l.5-.289.5.289v.577zm2.991-13.375-1-.577V14.73l1-.577 1 .577v1.155zm-2.182 5.679-1-.577v-1.155l1-.577 1 .577v1.155zm1 1.735-1-.577v-1.155l1-.577 1 .577v1.155zm1.003-1.735-1-.577v-1.155l1-.577 1 .577v1.155z"/></g><g fill="#4e6a2e"><path d="m80.975 60.063-2-1.155v-2.31l2-1.154 2 1.155v2.31zm-5.091-11.772-2-1.155v-2.31l2-1.154 2 1.155v2.31zm-3.572 7.484-2-1.155v-2.31l2-1.154 2 1.155v2.31zM66.75 25.119l-2-1.155v-2.31l2-1.154 2 1.155v2.31zm-10.275-.185-2-1.155v-2.31l2-1.154 2 1.155v2.31zm-9.778.382-2-1.155v-2.31l2-1.154 2 1.155v2.31zm-17.818 7.656-2-1.155v-2.31l2-1.154 2 1.155v2.31zm62.985 24.073-2-1.155v-2.31l2-1.154 2 1.155v2.31zm1.438-12.078-1.5-.866v-1.732l1.5-.866 1.5.866v1.732zm-5.846 1.95-1.5-.866v-1.732l1.5-.866 1.5.866v1.732zm-6.396 8.574-1.5-.866v-1.732l1.5-.866 1.5.866v1.732zm-4.514 4.471-1.5-.866v-1.732l1.5-.866 1.5.866v1.732zm2.127 1.086-1-.577v-1.155l1-.577 1 .577v1.155zm11.616 4.127-1.5-.866v-1.732l1.5-.866 1.5.866v1.732zM72.843 51.444l-1.5-.866v-1.732l1.5-.866 1.5.866v1.732zm-.468-3.208-1.5-.866v-1.732l1.5-.866 1.5.866v1.732zm-6.003-27.521-1-.577v-1.155l1-.577 1 .577v1.155zm-.681-1.917-1-.577v-1.155l1-.577 1 .577v1.155zm-8.354 2.013-1-.577v-1.155l1-.577 1 .577v1.155zm-1.868-4.701-1-.577v-1.155l1-.577 1 .577v1.155zm-.271 10.397-1-.577v-1.155l1-.577 1 .577v1.155zm-7.746-8.779-1-.577v-1.155l1-.577 1 .577v1.155zm14.596 21.556-1.5-.866v-1.732l1.5-.866 1.5.866v1.732zM47.507 21.162l-1.5-.866v-1.732l1.5-.866 1.5.866v1.732zm8.312-1.786-1.5-.866v-1.732l1.5-.866 1.5.866v1.732zm7.423 6.904-1.5-.866v-1.732l1.5-.866 1.5.866v1.732zm-21.526-1.109-1.5-.866v-1.732l1.5-.866 1.5.866v1.732zm.195-3.355-1-.577v-1.155l1-.577 1 .577v1.155zm-.614-1.956-1-.577v-1.155l1-.577 1 .577v1.155zm-.351-2.108-1-.577V16.02l1-.577 1 .577v1.155zm14.007 3.44-1-.577V19.46l1-.577 1 .577v1.155zm-13.734 6.004-1-.577v-1.155l1-.577 1 .577v1.155zm20.569 8.773-1-.577v-1.155l1-.577 1 .577v1.155zm-.236-2.175-1-.577v-1.155l1-.577 1 .577v1.155zm-1.381 6.72-1-.577v-1.155l1-.577 1 .577v1.155zm12.013 4.365-1-.577v-1.155l1-.577 1 .577v1.155zm-.786-1.857-1-.577V41.29l1-.577 1 .577v1.155zm8.175-16.13-1-.577V25.16l1-.577 1 .577v1.155zm-5.384 17.757-1-.577v-1.155l1-.577 1 .577v1.155zm4.702 1.371-1-.577v-1.155l1-.577 1 .577v1.155zm-.213-2.19-1-.577v-1.155l1-.577 1 .577v1.155zm-.311-2.13-1-.577v-1.155l1-.577 1 .577v1.155zm8.482 2.099-1-.577v-1.155l1-.577 1 .577v1.155zm-.365 4.872-1-.577v-1.155l1-.577 1 .577v1.155zm-7.597-.338-1-.577V46.6l1-.577 1 .577v1.155zm1.273 4.211-1-.577v-1.155l1-.577 1 .577v1.155zm10.878.356-1-.577v-1.155l1-.577 1 .577v1.155zm-5.034-2.192-1-.577v-1.155l1-.577 1 .577v1.155zm6.842-8.944-1-.577v-1.155l1-.577 1 .577v1.155zm1.302 10.735-1-.577v-1.155l1-.577 1 .577v1.155zm-1.908-6.986-.5-.289v-.577l.5-.289.5.289v.577zm-1.5.865-1-.577v-1.155l1-.577 1 .577V45.8zm4.092-1.137-.5-.289v-.577l.5-.289.5.289v.577zm-4.066 2.281-.5-.289v-.577l.5-.289.5.289v.577zm0 1.156-.5-.289v-.577l.5-.289.5.289v.577zM69.904 38.099l-.5-.289v-.577l.5-.289.5.289v.577zm1.279 7.361-.5-.289v-.577l.5-.289.5.289v.577zm.177-4.729-.5-.289v-.577l.5-.289.5.289v.577zm-.502-.866-.5-.289V39l.5-.289.5.289v.577zm-.397-.929-.5-.289v-.577l.5-.289.5.289v.577zm7.405.741-.5-.289v-.577l.5-.289.5.289v.577zm-.405-.925-.5-.289v-.577l.5-.289.5.289v.577zm1.828 11.985-.5-.289v-.577l.5-.289.5.289v.577zm8.586-17.431-2-1.155v-2.31l2-1.154 2 1.155v2.31zm-8.868.9-2-1.155v-2.31l2-1.154 2 1.155v2.31zm8.049 2.093-1.5-.866v-1.732l1.5-.866 1.5.866v1.732zm-3.006-.754-1.5-.866v-1.732l1.5-.866 1.5.866v1.732zm-4.09-5.41-1.5-.866v-1.732l1.5-.866 1.5.866v1.732zm6.889-.859-1-.577v-1.155l1-.577 1 .577v1.155zm-5.745 50.849-2-1.155v-2.31l2-1.154 2 1.155v2.31zm-.433 4.374-2-1.155v-2.31l2-1.154 2 1.155v2.31zm10.053-.394-2-1.155v-2.31l2-1.154 2 1.155v2.31zm1.326-21.384-2.5-1.443V58.39l2.5-1.443 2.5 1.443v2.887z"/><path d="m93.769 50.404-2.5-1.443v-2.887l2.5-1.443 2.5 1.443v2.887zM36 93.913l-3-1.732v-3.464l3-1.732 3 1.732v3.464zm.297-6.762-1.5-.866v-1.732l1.5-.866 1.5.866v1.732zm-4.803 5.087-1.5-.866V89.64l1.5-.866 1.5.866v1.732zm-4.29-3.821-1.5-.866v-1.732l1.5-.866 1.5.866v1.732zm-5.959 1.963-1.5-.866v-1.732l1.5-.866 1.5.866v1.732zm-9.323-10.956-1.5-.866v-1.732l1.5-.866 1.5.866v1.732zm42.953 14.978-1.5-.866v-1.732l1.5-.866 1.5.866v1.732zm11.719-8.532-1.5-.866v-1.732l1.5-.866 1.5.866v1.732zm-17.063.688-1.5-.866V83.96l1.5-.866 1.5.866v1.732zm-5.562-14.004-1.5-.866v-1.732l1.5-.866 1.5.866v1.732zm6.062 6.302-1.5-.866v-1.732l1.5-.866 1.5.866v1.732zm-22.112.957-2.5-1.443v-2.887l2.5-1.444 2.5 1.444v2.887zm-2.668 13.27-2.5-1.443v-2.887l2.5-1.444 2.5 1.444v2.887zm-13.704-3.049-2-1.155v-2.31l2-1.154 2 1.155v2.31zm1.176-3.952-2-1.155v-2.31l2-1.154 2 1.155v2.31zm37.402-2.653-2-1.155v-2.31l2-1.154 2 1.155v2.31zm-10.39-3.583-2-1.155v-2.31l2-1.154 2 1.155v2.31zm-12.934-5.174-2-1.155v-2.31l2-1.154 2 1.155v2.31zm-8.347-9.323-2-1.155v-2.31l2-1.154 2 1.155v2.31zm-.245-4.486-1.5-.866v-1.732l1.5-.866 1.5.866v1.732zm-3.233 10.818-1.5-.866v-1.732l1.5-.866 1.5.866v1.732zm-.638-26.374-1-.577v-1.155l1-.577 1 .577v1.155zm-.616-1.955-1-.577V41.62l1-.577 1 .577v1.155zM8.934 46.29l-1-.577v-1.155l1-.577 1 .577v1.155zm.978-9.284-1-.577v-1.155l1-.577 1 .577v1.155zm5.713-1.748-1.5-.866V32.66l1.5-.866 1.5.866v1.732zm-6.341 2.544-.5-.289v-.577l.5-.289.5.289v.577zm.482-3.022-.5-.289v-.577l.5-.289.5.289v.577zm3.455 6.55-.5-.289v-.577l.5-.289.5.289v.577zm1.002 0-.5-.289v-.577l.5-.289.5.289v.577zm-.5-.867-.5-.289v-.577l.5-.289.5.289v.577zm6.728 2.817-1-.577v-1.155l1-.577 1 .577v1.155zm12.251-3.838-1-.577V37.71l1-.577 1 .577v1.155zm-2.694 4.84-1-.577V42.55l1-.577 1 .577v1.155zm9.919-3.069-1-.577V39.48l1-.577 1 .577v1.155zm-1.159 5.111-1-.577v-1.155l1-.577 1 .577v1.155zm-9.274.511-1-.577v-1.155l1-.577 1 .577v1.155zm-1.49-1.453-1-.577V43.65l1-.577 1 .577v1.155zm11.672-6.337-.5-.289v-.577l.5-.289.5.289v.577zm-8.137 4.353-.5-.289v-.577l.5-.289.5.289v.577zm2.033.066-.5-.289v-.577l.5-.289.5.289v.577zm-10.714-9.741-1-.577V31.99l1-.577 1 .577v1.155zm-3.112 3.586-1-.577v-1.155l1-.577 1 .577v1.155zm-3.369-5.083-1-.577v-1.155l1-.577 1 .577v1.155zm-.543-2.342-1-.577v-1.155l1-.577 1 .577v1.155zm6.474 1.845-1-.577v-1.155l1-.577 1 .577v1.155zm-.41-2.075-.5-.289v-.577l.5-.289.5.289v.577zm-.382-.937-.5-.289v-.577l.5-.289.5.289v.577zm-3.171 7.088-.5-.289v-.577l.5-.289.5.289v.577zm-3.015-9.009-.5-.289v-.577l.5-.289.5.289v.577zm-.079 1.11-.5-.289v-.577l.5-.289.5.289v.577zm12.693-5.371-.5-.289v-.577l.5-.289.5.289v.577zm-.503.867-.5-.289v-.577l.5-.289.5.289v.577zm12.912-7.619-.5-.289v-.577l.5-.289.5.289v.577zm.409-.923-.5-.289v-.577l.5-.289.5.289v.577zm-.274-.998-.5-.289v-.577l.5-.289.5.289v.577zm.867 1.813-.5-.289v-.577l.5-.289.5.289v.577zm-12.88 9.442-1-.577v-1.155l1-.577 1 .577v1.155zm-8.62 21.284-1.5-.866v-1.732l1.5-.866 1.5.866v1.732zm12.759-3.541-1.5-.866v-1.732l1.5-.866 1.5.866v1.732zm7.246 1.781-1.5-.866v-1.732l1.5-.866 1.5.866v1.732zm-7.364 2.826-2-1.155v-2.31l2-1.154 2 1.155v2.31zm-7.711 19.8-1.5-.866v-1.732l1.5-.866 1.5.866v1.732zm-6.816-9.74-1-.577v-1.155l1-.577 1 .577v1.155zM9.094 69.059l-1-.577v-1.155l1-.577 1 .577v1.155zm.431-2.064-1-.577v-1.155l1-.577 1 .577v1.155zm15.207-3.178-1-.577v-1.155l1-.577 1 .577v1.155zm11.051 20.152-1-.577v-1.155l1-.577 1 .577v1.155zM32.3 94.091l-1-.577v-1.155l1-.577 1 .577v1.155z"/><path d="m37.296 87.729-.5-.289v-.577l.5-.289.5.289v.577zm-8.378-7.338-.5-.289v-.577l.5-.289.5.289v.577zm-2.586-.338-.5-.289v-.577l.5-.289.5.289v.577zm8.667 7.505-.5-.289v-.577l.5-.289.5.289v.577zm-23.327-5.494-1-.577v-1.155l1-.577 1 .577v1.155zm-4.375 5.228-1-.577V85.56l1-.577 1 .577v1.155zm6.221-6.475-1-.577v-1.155l1-.577 1 .577v1.155zm6.021 7.082-1-.577v-1.155l1-.577 1 .577v1.155zm6.445-2.264-1-.577v-1.155l1-.577 1 .577v1.155zm-14.55-9.396-1-.577v-1.155l1-.577 1 .577v1.155zM8.545 88.883l-1-.577V87.15l1-.577 1 .577v1.155zm50.721-14.848-2-1.155v-2.31l2-1.154 2 1.155v2.31zm5.132-5.585-1.5-.866v-1.732l1.5-.866 1.5.866v1.732zm8.258 9.935-1.5-.866v-1.732l1.5-.866 1.5.866v1.732zm.012-3.466-1.5-.866v-1.732l1.5-.866 1.5.866v1.732zm-.266-3.314-1.5-.866v-1.732l1.5-.866 1.5.866v1.732zm-15.69 20.381-1-.577v-1.155l1-.577 1 .577v1.155zm-3.646-.009-1-.577v-1.155l1-.577 1 .577V91.4zm-6.041-4.797-1-.577v-1.155l1-.577 1 .577v1.155zm-1.445-1.478-1-.577V83.97l1-.577 1 .577v1.155zm-.338-2.118-1-.577v-1.155l1-.577 1 .577v1.155zm-1.731-14.237-1-.577v-1.155l1-.577 1 .577v1.155zm-.232 5.12-1-.577v-1.155l1-.577 1 .577v1.155zm15.251-8.105-1-.577V64.63l1-.577 1 .577v1.155zM41.695 81.028l-1-.577v-1.155l1-.577 1 .577v1.155zm14.985 8.66-1-.577v-1.155l1-.577 1 .577v1.155zm.415-2.072-.5-.289v-.577l.5-.289.5.289v.577zm-.843-.669-.5-.289v-.577l.5-.289.5.289v.577zm12.507-8.236-.5-.289v-.577l.5-.289.5.289v.577zm-1.048 4.338-.5-.289v-.577l.5-.289.5.289v.577zm1.386 1.512-1-.577v-1.155l1-.577 1 .577v1.155zm-4.769-.851-1-.577v-1.155l1-.577 1 .577v1.155zm-.998-1.736-1-.577v-1.155l1-.577 1 .577v1.155zm-4.872-6.092-1-.577V74.15l1-.577 1 .577v1.155zm6.752-10.434-1-.577v-1.155l1-.577 1 .577v1.155zm.753-1.882-1-.577v-1.155l1-.577 1 .577v1.155zm6.447 4.568-1-.577v-1.155l1-.577 1 .577v1.155zm-.922-1.782-1-.577V64.62l1-.577 1 .577v1.155zm-.836 9.725-1-.577v-1.155l1-.577 1 .577V75.5zm-6.194-12.509-.5-.289v-.577l.5-.289.5.289v.577zm7.34.646-.5-.289v-.577l.5-.289.5.289v.577zm-.395 4.497-.5-.289v-.577l.5-.289.5.289v.577zm-.001 3.473-.5-.289v-.577l.5-.289.5.289v.577zm-6.447-10.348-.5-.289v-.577l.5-.289.5.289v.577zm4.913 20.859-1-.577v-1.155l1-.577 1 .577v1.155zm-.61-1.96-1-.577v-1.155l1-.577 1 .577v1.155zm11.406-4.982-1.5-.866v-1.732l1.5-.866 1.5.866v1.732zm-3.836 6.067-1-.577v-1.155l1-.577 1 .577v1.155zM58.846 69.646l-1.5-.866v-1.732l1.5-.866 1.5.866v1.732zm-39.861 1.192-2.5-1.443v-2.888l2.5-1.443 2.5 1.444v2.886zm8.348 13.258-2-1.155v-2.31l2-1.154 2 1.155v2.31zm6.977 11.153-1-.577v-1.155l1-.577 1 .577v1.155zM13.873 48.508l-1.5-.866V45.91l1.5-.866 1.5.866v1.732zm8.377-11.669-1.5-.866v-1.732l1.5-.866 1.5.866v1.732zm6.575-8.457-1.5-.866v-1.732l1.5-.866 1.5.866v1.732zM10.858 48.648l-1.5-.866V46.05l1.5-.866 1.5.866v1.732zm78.954 31.361-1-.577v-1.155l1-.577 1 .577v1.155zm-1.599 4.958-1-.577v-1.155l1-.577 1 .577v1.155zm2.006 1.16-1-.577v-1.155l1-.577 1 .577v1.155z"/></g><path fill="#6c9942" d="m8.364 84.74-2-1.155v-2.31l2-1.154 2 1.155v2.31zm1.273-9.672-.5-.289v-.577l.5-.289.5.289v.577z"/><path fill="#4e6a2e" d="m77.66 83.652-1-.577V81.92l1-.577 1 .577v1.155zm8.656-56.379-.5-.289v-.577l.5-.289.5.289v.577zM65.218 60.83l-.5-.289v-.577l.5-.289.5.289v.577zm1.004.57-.5-.289v-.577l.5-.289.5.289v.577zm-25.62-32.247-1-.577V27.42l1-.577 1 .577v1.155z"/><path fill="#6c9942" d="m39.152 70.94-.5-.289v-.577l.5-.289.5.289v.577zm2.489.297-.5-.289v-.577l.5-.289.5.289v.577z"/><path fill="#4e6a2e" d="m65.187 16.777-.5-.289v-.577l.5-.289.5.289v.577z"/><path fill="#6c9942" d="m84.907 40.692-.5-.289v-.577l.5-.289.5.289v.577zm-61.47-16.281-.5-.289v-.577l.5-.289.5.289v.577zm2.999.679-.5-.289v-.577l.5-.289.5.289v.577zm-2.221 4.498-.5-.289v-.577l.5-.289.5.289v.577zm2.371-7.883-.5-.289v-.577l.5-.289.5.289v.577zm-1.002-.576-.5-.289v-.577l.5-.289.5.289v.577z"/><path fill="#4e6a2e" d="m79.071 24.872-.5-.289v-.577l.5-.289.5.289v.577zM64.398 70.759l-1-.577v-1.155l1-.577 1 .577v1.155z"/><path fill="#6c9942" d="m62.131 66.409-.5-.289v-.577l.5-.289.5.289v.577z"/><path fill="#4e6a2e" d="m43.011 67.323-.5-.289v-.577l.5-.289.5.289v.577zm-.414-.919-.5-.289v-.577l.5-.289.5.289v.577z"/><path fill="#6c9942" d="m36.535 23.413-.5-.289v-.577l.5-.289.5.289v.577zm2.172-.106-.5-.289v-.577l.5-.289.5.289v.577zm-3.395 16.016-.5-.289v-.577l.5-.289.5.289v.577zm.656-2.695-.5-.289v-.577l.5-.289.5.289v.577zm-8.753 2.328-.5-.289v-.577l.5-.289.5.289v.577zm10.254.273-.5-.289v-.577l.5-.289.5.289v.577zm-7.501.153-.5-.289v-.577l.5-.289.5.289v.577z"/><path fill="#4e6a2e" d="m31.701 37.708-.5-.289v-.577l.5-.289.5.289v.577zm1.002-.581-.5-.289v-.577l.5-.289.5.289v.577z"/></svg>